<mxfile host="Electron" agent="Mozilla/5.0 (Windows NT 10.0; Win64; x64) AppleWebKit/537.36 (KHTML, like Gecko) draw.io/27.0.5 Chrome/134.0.6998.205 Electron/35.3.0 Safari/537.36" version="27.0.5" pages="3">
  <diagram name="Application" id="4ihUbcqLiySEULxmXrxn">
    <mxGraphModel dx="2962" dy="1104" grid="1" gridSize="10" guides="1" tooltips="1" connect="1" arrows="1" fold="1" page="1" pageScale="1" pageWidth="850" pageHeight="1100" math="0" shadow="0">
      <root>
        <mxCell id="0" />
        <mxCell id="1" parent="0" />
        <mxCell id="K-c8bwlDkUytXocR-t8u-1" value="JobOpenings" style="swimlane;whiteSpace=wrap;html=1;fillColor=#2975FF;" parent="1" vertex="1">
          <mxGeometry x="500" y="80" width="250" height="330" as="geometry" />
        </mxCell>
        <mxCell id="Pr0mgpjzGMfo_HHlU-Es-14" value="" style="line;strokeWidth=2;html=1;" parent="K-c8bwlDkUytXocR-t8u-1" vertex="1">
          <mxGeometry y="75" width="250" height="10" as="geometry" />
        </mxCell>
        <mxCell id="Pr0mgpjzGMfo_HHlU-Es-15" value="" style="shape=table;startSize=0;container=1;collapsible=0;childLayout=tableLayout;fontSize=11;fillColor=none;strokeColor=none;" parent="K-c8bwlDkUytXocR-t8u-1" vertex="1">
          <mxGeometry x="40" y="45" width="100" height="18" as="geometry" />
        </mxCell>
        <mxCell id="Pr0mgpjzGMfo_HHlU-Es-18" value="" style="shape=tableRow;horizontal=0;startSize=0;swimlaneHead=0;swimlaneBody=0;strokeColor=inherit;top=0;left=0;bottom=0;right=0;collapsible=0;dropTarget=0;fillColor=none;points=[[0,0.5],[1,0.5]];portConstraint=eastwest;fontSize=16;" parent="Pr0mgpjzGMfo_HHlU-Es-15" vertex="1">
          <mxGeometry width="100" height="18" as="geometry" />
        </mxCell>
        <mxCell id="Pr0mgpjzGMfo_HHlU-Es-19" value="JobID" style="shape=partialRectangle;html=1;whiteSpace=wrap;connectable=0;strokeColor=inherit;overflow=hidden;fillColor=none;top=0;left=0;bottom=0;right=0;pointerEvents=1;fontSize=12;align=left;spacingLeft=5;" parent="Pr0mgpjzGMfo_HHlU-Es-18" vertex="1">
          <mxGeometry width="100" height="18" as="geometry">
            <mxRectangle width="100" height="18" as="alternateBounds" />
          </mxGeometry>
        </mxCell>
        <mxCell id="Pr0mgpjzGMfo_HHlU-Es-28" value="" style="line;strokeWidth=2;html=1;rotation=90;" parent="K-c8bwlDkUytXocR-t8u-1" vertex="1">
          <mxGeometry x="-111.38" y="175.39" width="302.76" height="10" as="geometry" />
        </mxCell>
        <mxCell id="Pr0mgpjzGMfo_HHlU-Es-5" value="" style="shape=table;startSize=0;container=1;collapsible=0;childLayout=tableLayout;fontSize=11;fillColor=none;strokeColor=none;" parent="K-c8bwlDkUytXocR-t8u-1" vertex="1">
          <mxGeometry x="40" y="85" width="200" height="85" as="geometry" />
        </mxCell>
        <mxCell id="Pr0mgpjzGMfo_HHlU-Es-6" value="" style="shape=tableRow;horizontal=0;startSize=0;swimlaneHead=0;swimlaneBody=0;strokeColor=inherit;top=0;left=0;bottom=0;right=0;collapsible=0;dropTarget=0;fillColor=none;points=[[0,0.5],[1,0.5]];portConstraint=eastwest;fontSize=16;" parent="Pr0mgpjzGMfo_HHlU-Es-5" vertex="1">
          <mxGeometry width="200" height="29" as="geometry" />
        </mxCell>
        <mxCell id="Pr0mgpjzGMfo_HHlU-Es-7" value="JobDescription: nvarchcar(max)" style="shape=partialRectangle;html=1;whiteSpace=wrap;connectable=0;strokeColor=inherit;overflow=hidden;fillColor=none;top=0;left=0;bottom=0;right=0;pointerEvents=1;fontSize=12;align=left;spacingLeft=5;" parent="Pr0mgpjzGMfo_HHlU-Es-6" vertex="1">
          <mxGeometry width="200" height="29" as="geometry">
            <mxRectangle width="200" height="29" as="alternateBounds" />
          </mxGeometry>
        </mxCell>
        <mxCell id="Pr0mgpjzGMfo_HHlU-Es-8" value="" style="shape=tableRow;horizontal=0;startSize=0;swimlaneHead=0;swimlaneBody=0;strokeColor=inherit;top=0;left=0;bottom=0;right=0;collapsible=0;dropTarget=0;fillColor=none;points=[[0,0.5],[1,0.5]];portConstraint=eastwest;fontSize=16;" parent="Pr0mgpjzGMfo_HHlU-Es-5" vertex="1">
          <mxGeometry y="29" width="200" height="27" as="geometry" />
        </mxCell>
        <mxCell id="Pr0mgpjzGMfo_HHlU-Es-9" value="JobType: varchar(20)" style="shape=partialRectangle;html=1;whiteSpace=wrap;connectable=0;strokeColor=inherit;overflow=hidden;fillColor=none;top=0;left=0;bottom=0;right=0;pointerEvents=1;fontSize=12;align=left;spacingLeft=5;" parent="Pr0mgpjzGMfo_HHlU-Es-8" vertex="1">
          <mxGeometry width="200" height="27" as="geometry">
            <mxRectangle width="200" height="27" as="alternateBounds" />
          </mxGeometry>
        </mxCell>
        <mxCell id="Pr0mgpjzGMfo_HHlU-Es-10" value="" style="shape=tableRow;horizontal=0;startSize=0;swimlaneHead=0;swimlaneBody=0;strokeColor=inherit;top=0;left=0;bottom=0;right=0;collapsible=0;dropTarget=0;fillColor=none;points=[[0,0.5],[1,0.5]];portConstraint=eastwest;fontSize=16;" parent="Pr0mgpjzGMfo_HHlU-Es-5" vertex="1">
          <mxGeometry y="56" width="200" height="29" as="geometry" />
        </mxCell>
        <mxCell id="Pr0mgpjzGMfo_HHlU-Es-11" value="JobDepartment: varchar(225)" style="shape=partialRectangle;html=1;whiteSpace=wrap;connectable=0;strokeColor=inherit;overflow=hidden;fillColor=none;top=0;left=0;bottom=0;right=0;pointerEvents=1;fontSize=12;align=left;spacingLeft=5;" parent="Pr0mgpjzGMfo_HHlU-Es-10" vertex="1">
          <mxGeometry width="200" height="29" as="geometry">
            <mxRectangle width="200" height="29" as="alternateBounds" />
          </mxGeometry>
        </mxCell>
        <mxCell id="Pr0mgpjzGMfo_HHlU-Es-29" value="PK" style="text;html=1;align=center;verticalAlign=middle;resizable=0;points=[];autosize=1;strokeColor=none;fillColor=none;" parent="K-c8bwlDkUytXocR-t8u-1" vertex="1">
          <mxGeometry y="39" width="40" height="30" as="geometry" />
        </mxCell>
        <mxCell id="it6m6Rma9egd-yF74jtZ-13" value="JobStartDate: date" style="shape=partialRectangle;html=1;whiteSpace=wrap;connectable=0;strokeColor=inherit;overflow=hidden;fillColor=none;top=0;left=0;bottom=0;right=0;pointerEvents=1;fontSize=12;align=left;spacingLeft=5;" vertex="1" parent="K-c8bwlDkUytXocR-t8u-1">
          <mxGeometry x="40" y="200" width="210" height="34" as="geometry">
            <mxRectangle width="130" height="34" as="alternateBounds" />
          </mxGeometry>
        </mxCell>
        <mxCell id="it6m6Rma9egd-yF74jtZ-12" value="NumberofPositions: int" style="shape=partialRectangle;html=1;whiteSpace=wrap;connectable=0;strokeColor=inherit;overflow=hidden;fillColor=none;top=0;left=0;bottom=0;right=0;pointerEvents=1;fontSize=12;align=left;spacingLeft=5;" vertex="1" parent="K-c8bwlDkUytXocR-t8u-1">
          <mxGeometry x="40" y="170" width="210" height="34" as="geometry">
            <mxRectangle width="130" height="34" as="alternateBounds" />
          </mxGeometry>
        </mxCell>
        <mxCell id="3iyQGeRtQ4QqKhoef72l-1" value="PositionTitle: varchar(225)" style="shape=partialRectangle;html=1;whiteSpace=wrap;connectable=0;strokeColor=inherit;overflow=hidden;fillColor=none;top=0;left=0;bottom=0;right=0;pointerEvents=1;fontSize=12;align=left;spacingLeft=5;" vertex="1" parent="K-c8bwlDkUytXocR-t8u-1">
          <mxGeometry x="40" y="229" width="210" height="34" as="geometry">
            <mxRectangle width="130" height="34" as="alternateBounds" />
          </mxGeometry>
        </mxCell>
        <mxCell id="bxvURaToYTrSnvhqfkRm-28" value="RegionID: int" style="shape=partialRectangle;html=1;whiteSpace=wrap;connectable=0;strokeColor=inherit;overflow=hidden;fillColor=none;top=0;left=0;bottom=0;right=0;pointerEvents=1;fontSize=12;align=left;spacingLeft=5;" vertex="1" parent="K-c8bwlDkUytXocR-t8u-1">
          <mxGeometry x="40" y="263" width="130" height="20" as="geometry">
            <mxRectangle width="130" height="20" as="alternateBounds" />
          </mxGeometry>
        </mxCell>
        <mxCell id="bxvURaToYTrSnvhqfkRm-30" value="FK" style="text;html=1;align=center;verticalAlign=middle;resizable=0;points=[];autosize=1;strokeColor=none;fillColor=none;" vertex="1" parent="K-c8bwlDkUytXocR-t8u-1">
          <mxGeometry y="263" width="40" height="30" as="geometry" />
        </mxCell>
        <mxCell id="bxvURaToYTrSnvhqfkRm-31" value="FK" style="text;html=1;align=center;verticalAlign=middle;resizable=0;points=[];autosize=1;strokeColor=none;fillColor=none;" vertex="1" parent="K-c8bwlDkUytXocR-t8u-1">
          <mxGeometry y="293" width="40" height="30" as="geometry" />
        </mxCell>
        <mxCell id="bxvURaToYTrSnvhqfkRm-32" value="DepartmentID: int" style="shape=partialRectangle;html=1;whiteSpace=wrap;connectable=0;strokeColor=inherit;overflow=hidden;fillColor=none;top=0;left=0;bottom=0;right=0;pointerEvents=1;fontSize=12;align=left;spacingLeft=5;" vertex="1" parent="K-c8bwlDkUytXocR-t8u-1">
          <mxGeometry x="40" y="293" width="130" height="20" as="geometry">
            <mxRectangle width="130" height="20" as="alternateBounds" />
          </mxGeometry>
        </mxCell>
        <mxCell id="Pr0mgpjzGMfo_HHlU-Es-31" value="State" style="swimlane;whiteSpace=wrap;html=1;" parent="1" vertex="1">
          <mxGeometry x="1660" y="620" width="240" height="140" as="geometry" />
        </mxCell>
        <mxCell id="Pr0mgpjzGMfo_HHlU-Es-32" value="" style="line;strokeWidth=2;html=1;" parent="Pr0mgpjzGMfo_HHlU-Es-31" vertex="1">
          <mxGeometry y="75" width="240" height="10" as="geometry" />
        </mxCell>
        <mxCell id="Pr0mgpjzGMfo_HHlU-Es-33" value="" style="shape=table;startSize=0;container=1;collapsible=0;childLayout=tableLayout;fontSize=11;fillColor=none;strokeColor=none;" parent="Pr0mgpjzGMfo_HHlU-Es-31" vertex="1">
          <mxGeometry x="40" y="45" width="100" height="18" as="geometry" />
        </mxCell>
        <mxCell id="Pr0mgpjzGMfo_HHlU-Es-34" value="" style="shape=tableRow;horizontal=0;startSize=0;swimlaneHead=0;swimlaneBody=0;strokeColor=inherit;top=0;left=0;bottom=0;right=0;collapsible=0;dropTarget=0;fillColor=none;points=[[0,0.5],[1,0.5]];portConstraint=eastwest;fontSize=16;" parent="Pr0mgpjzGMfo_HHlU-Es-33" vertex="1">
          <mxGeometry width="100" height="18" as="geometry" />
        </mxCell>
        <mxCell id="Pr0mgpjzGMfo_HHlU-Es-35" value="StateID" style="shape=partialRectangle;html=1;whiteSpace=wrap;connectable=0;strokeColor=inherit;overflow=hidden;fillColor=none;top=0;left=0;bottom=0;right=0;pointerEvents=1;fontSize=12;align=left;spacingLeft=5;" parent="Pr0mgpjzGMfo_HHlU-Es-34" vertex="1">
          <mxGeometry width="100" height="18" as="geometry">
            <mxRectangle width="100" height="18" as="alternateBounds" />
          </mxGeometry>
        </mxCell>
        <mxCell id="Pr0mgpjzGMfo_HHlU-Es-36" value="" style="line;strokeWidth=2;html=1;rotation=90;" parent="Pr0mgpjzGMfo_HHlU-Es-31" vertex="1">
          <mxGeometry x="-16.98" y="78.49" width="113.97" height="10" as="geometry" />
        </mxCell>
        <mxCell id="Pr0mgpjzGMfo_HHlU-Es-37" value="" style="shape=table;startSize=0;container=1;collapsible=0;childLayout=tableLayout;fontSize=11;fillColor=none;strokeColor=none;" parent="Pr0mgpjzGMfo_HHlU-Es-31" vertex="1">
          <mxGeometry x="41" y="85" width="199" height="28" as="geometry" />
        </mxCell>
        <mxCell id="Pr0mgpjzGMfo_HHlU-Es-38" value="" style="shape=tableRow;horizontal=0;startSize=0;swimlaneHead=0;swimlaneBody=0;strokeColor=inherit;top=0;left=0;bottom=0;right=0;collapsible=0;dropTarget=0;fillColor=none;points=[[0,0.5],[1,0.5]];portConstraint=eastwest;fontSize=16;" parent="Pr0mgpjzGMfo_HHlU-Es-37" vertex="1">
          <mxGeometry width="199" height="28" as="geometry" />
        </mxCell>
        <mxCell id="Pr0mgpjzGMfo_HHlU-Es-39" value="StateName:varchar(255)" style="shape=partialRectangle;html=1;whiteSpace=wrap;connectable=0;strokeColor=inherit;overflow=hidden;fillColor=none;top=0;left=0;bottom=0;right=0;pointerEvents=1;fontSize=12;align=left;spacingLeft=5;" parent="Pr0mgpjzGMfo_HHlU-Es-38" vertex="1">
          <mxGeometry width="199" height="28" as="geometry">
            <mxRectangle width="199" height="28" as="alternateBounds" />
          </mxGeometry>
        </mxCell>
        <mxCell id="Pr0mgpjzGMfo_HHlU-Es-46" value="PK" style="text;html=1;align=center;verticalAlign=middle;resizable=0;points=[];autosize=1;strokeColor=none;fillColor=none;" parent="Pr0mgpjzGMfo_HHlU-Es-31" vertex="1">
          <mxGeometry y="39" width="40" height="30" as="geometry" />
        </mxCell>
        <mxCell id="FspfbSlliUGgCetE-tHI-5" value="PK" style="text;html=1;align=center;verticalAlign=middle;resizable=0;points=[];autosize=1;strokeColor=none;fillColor=none;" vertex="1" parent="Pr0mgpjzGMfo_HHlU-Es-31">
          <mxGeometry y="110" width="40" height="30" as="geometry" />
        </mxCell>
        <mxCell id="FspfbSlliUGgCetE-tHI-6" value="" style="shape=table;startSize=0;container=1;collapsible=0;childLayout=tableLayout;fontSize=11;fillColor=none;strokeColor=none;" vertex="1" parent="Pr0mgpjzGMfo_HHlU-Es-31">
          <mxGeometry x="40" y="110" width="199" height="25" as="geometry" />
        </mxCell>
        <mxCell id="FspfbSlliUGgCetE-tHI-7" value="" style="shape=tableRow;horizontal=0;startSize=0;swimlaneHead=0;swimlaneBody=0;strokeColor=inherit;top=0;left=0;bottom=0;right=0;collapsible=0;dropTarget=0;fillColor=none;points=[[0,0.5],[1,0.5]];portConstraint=eastwest;fontSize=16;" vertex="1" parent="FspfbSlliUGgCetE-tHI-6">
          <mxGeometry width="199" height="25" as="geometry" />
        </mxCell>
        <mxCell id="FspfbSlliUGgCetE-tHI-8" value="CityID: int" style="shape=partialRectangle;html=1;whiteSpace=wrap;connectable=0;strokeColor=inherit;overflow=hidden;fillColor=none;top=0;left=0;bottom=0;right=0;pointerEvents=1;fontSize=12;align=left;spacingLeft=5;" vertex="1" parent="FspfbSlliUGgCetE-tHI-7">
          <mxGeometry width="199" height="25" as="geometry">
            <mxRectangle width="199" height="25" as="alternateBounds" />
          </mxGeometry>
        </mxCell>
        <mxCell id="Pr0mgpjzGMfo_HHlU-Es-81" value="Documents" style="swimlane;whiteSpace=wrap;html=1;" parent="1" vertex="1">
          <mxGeometry x="515" y="785" width="220" height="160" as="geometry" />
        </mxCell>
        <mxCell id="Pr0mgpjzGMfo_HHlU-Es-82" value="" style="line;strokeWidth=2;html=1;" parent="Pr0mgpjzGMfo_HHlU-Es-81" vertex="1">
          <mxGeometry y="75" width="220" height="10" as="geometry" />
        </mxCell>
        <mxCell id="Pr0mgpjzGMfo_HHlU-Es-83" value="" style="shape=table;startSize=0;container=1;collapsible=0;childLayout=tableLayout;fontSize=11;fillColor=none;strokeColor=none;" parent="Pr0mgpjzGMfo_HHlU-Es-81" vertex="1">
          <mxGeometry x="40" y="45" width="100" height="18" as="geometry" />
        </mxCell>
        <mxCell id="Pr0mgpjzGMfo_HHlU-Es-84" value="" style="shape=tableRow;horizontal=0;startSize=0;swimlaneHead=0;swimlaneBody=0;strokeColor=inherit;top=0;left=0;bottom=0;right=0;collapsible=0;dropTarget=0;fillColor=none;points=[[0,0.5],[1,0.5]];portConstraint=eastwest;fontSize=16;" parent="Pr0mgpjzGMfo_HHlU-Es-83" vertex="1">
          <mxGeometry width="100" height="18" as="geometry" />
        </mxCell>
        <mxCell id="Pr0mgpjzGMfo_HHlU-Es-85" value="DocumentID" style="shape=partialRectangle;html=1;whiteSpace=wrap;connectable=0;strokeColor=inherit;overflow=hidden;fillColor=none;top=0;left=0;bottom=0;right=0;pointerEvents=1;fontSize=12;align=left;spacingLeft=5;" parent="Pr0mgpjzGMfo_HHlU-Es-84" vertex="1">
          <mxGeometry width="100" height="18" as="geometry">
            <mxRectangle width="100" height="18" as="alternateBounds" />
          </mxGeometry>
        </mxCell>
        <mxCell id="Pr0mgpjzGMfo_HHlU-Es-86" value="" style="line;strokeWidth=2;html=1;rotation=90;" parent="Pr0mgpjzGMfo_HHlU-Es-81" vertex="1">
          <mxGeometry x="-24.05" y="88.06" width="128.12" height="10" as="geometry" />
        </mxCell>
        <mxCell id="Pr0mgpjzGMfo_HHlU-Es-87" value="" style="shape=table;startSize=0;container=1;collapsible=0;childLayout=tableLayout;fontSize=11;fillColor=none;strokeColor=none;" parent="Pr0mgpjzGMfo_HHlU-Es-81" vertex="1">
          <mxGeometry x="40" y="85" width="160" height="75" as="geometry" />
        </mxCell>
        <mxCell id="Pr0mgpjzGMfo_HHlU-Es-88" value="" style="shape=tableRow;horizontal=0;startSize=0;swimlaneHead=0;swimlaneBody=0;strokeColor=inherit;top=0;left=0;bottom=0;right=0;collapsible=0;dropTarget=0;fillColor=none;points=[[0,0.5],[1,0.5]];portConstraint=eastwest;fontSize=16;" parent="Pr0mgpjzGMfo_HHlU-Es-87" vertex="1">
          <mxGeometry width="160" height="25" as="geometry" />
        </mxCell>
        <mxCell id="Pr0mgpjzGMfo_HHlU-Es-89" value="CandidateID:int" style="shape=partialRectangle;html=1;whiteSpace=wrap;connectable=0;strokeColor=inherit;overflow=hidden;fillColor=none;top=0;left=0;bottom=0;right=0;pointerEvents=1;fontSize=12;align=left;spacingLeft=5;" parent="Pr0mgpjzGMfo_HHlU-Es-88" vertex="1">
          <mxGeometry width="160" height="25" as="geometry">
            <mxRectangle width="160" height="25" as="alternateBounds" />
          </mxGeometry>
        </mxCell>
        <mxCell id="Pr0mgpjzGMfo_HHlU-Es-90" value="" style="shape=tableRow;horizontal=0;startSize=0;swimlaneHead=0;swimlaneBody=0;strokeColor=inherit;top=0;left=0;bottom=0;right=0;collapsible=0;dropTarget=0;fillColor=none;points=[[0,0.5],[1,0.5]];portConstraint=eastwest;fontSize=16;" parent="Pr0mgpjzGMfo_HHlU-Es-87" vertex="1">
          <mxGeometry y="25" width="160" height="25" as="geometry" />
        </mxCell>
        <mxCell id="Pr0mgpjzGMfo_HHlU-Es-91" value="CoverLetter: bit" style="shape=partialRectangle;html=1;whiteSpace=wrap;connectable=0;strokeColor=inherit;overflow=hidden;fillColor=none;top=0;left=0;bottom=0;right=0;pointerEvents=1;fontSize=12;align=left;spacingLeft=5;" parent="Pr0mgpjzGMfo_HHlU-Es-90" vertex="1">
          <mxGeometry width="160" height="25" as="geometry">
            <mxRectangle width="160" height="25" as="alternateBounds" />
          </mxGeometry>
        </mxCell>
        <mxCell id="Pr0mgpjzGMfo_HHlU-Es-92" value="" style="shape=tableRow;horizontal=0;startSize=0;swimlaneHead=0;swimlaneBody=0;strokeColor=inherit;top=0;left=0;bottom=0;right=0;collapsible=0;dropTarget=0;fillColor=none;points=[[0,0.5],[1,0.5]];portConstraint=eastwest;fontSize=16;" parent="Pr0mgpjzGMfo_HHlU-Es-87" vertex="1">
          <mxGeometry y="50" width="160" height="25" as="geometry" />
        </mxCell>
        <mxCell id="Pr0mgpjzGMfo_HHlU-Es-93" value="Resume: bit" style="shape=partialRectangle;html=1;whiteSpace=wrap;connectable=0;strokeColor=inherit;overflow=hidden;fillColor=none;top=0;left=0;bottom=0;right=0;pointerEvents=1;fontSize=12;align=left;spacingLeft=5;" parent="Pr0mgpjzGMfo_HHlU-Es-92" vertex="1">
          <mxGeometry width="160" height="25" as="geometry">
            <mxRectangle width="160" height="25" as="alternateBounds" />
          </mxGeometry>
        </mxCell>
        <mxCell id="Pr0mgpjzGMfo_HHlU-Es-94" value="PK" style="text;html=1;align=center;verticalAlign=middle;resizable=0;points=[];autosize=1;strokeColor=none;fillColor=none;" parent="Pr0mgpjzGMfo_HHlU-Es-81" vertex="1">
          <mxGeometry y="39" width="40" height="30" as="geometry" />
        </mxCell>
        <mxCell id="Pr0mgpjzGMfo_HHlU-Es-95" value="FK" style="text;html=1;align=center;verticalAlign=middle;resizable=0;points=[];autosize=1;strokeColor=none;fillColor=none;" parent="Pr0mgpjzGMfo_HHlU-Es-81" vertex="1">
          <mxGeometry y="86.5" width="40" height="30" as="geometry" />
        </mxCell>
        <mxCell id="Pr0mgpjzGMfo_HHlU-Es-97" value="Education" style="swimlane;whiteSpace=wrap;html=1;" parent="1" vertex="1">
          <mxGeometry x="1730" y="810" width="220" height="210" as="geometry" />
        </mxCell>
        <mxCell id="Pr0mgpjzGMfo_HHlU-Es-98" value="" style="line;strokeWidth=2;html=1;" parent="Pr0mgpjzGMfo_HHlU-Es-97" vertex="1">
          <mxGeometry y="75" width="220" height="10" as="geometry" />
        </mxCell>
        <mxCell id="Pr0mgpjzGMfo_HHlU-Es-99" value="" style="shape=table;startSize=0;container=1;collapsible=0;childLayout=tableLayout;fontSize=11;fillColor=none;strokeColor=none;" parent="Pr0mgpjzGMfo_HHlU-Es-97" vertex="1">
          <mxGeometry x="40" y="45" width="100" height="18" as="geometry" />
        </mxCell>
        <mxCell id="Pr0mgpjzGMfo_HHlU-Es-100" value="" style="shape=tableRow;horizontal=0;startSize=0;swimlaneHead=0;swimlaneBody=0;strokeColor=inherit;top=0;left=0;bottom=0;right=0;collapsible=0;dropTarget=0;fillColor=none;points=[[0,0.5],[1,0.5]];portConstraint=eastwest;fontSize=16;" parent="Pr0mgpjzGMfo_HHlU-Es-99" vertex="1">
          <mxGeometry width="100" height="18" as="geometry" />
        </mxCell>
        <mxCell id="Pr0mgpjzGMfo_HHlU-Es-101" value="EducationID" style="shape=partialRectangle;html=1;whiteSpace=wrap;connectable=0;strokeColor=inherit;overflow=hidden;fillColor=none;top=0;left=0;bottom=0;right=0;pointerEvents=1;fontSize=12;align=left;spacingLeft=5;" parent="Pr0mgpjzGMfo_HHlU-Es-100" vertex="1">
          <mxGeometry width="100" height="18" as="geometry">
            <mxRectangle width="100" height="18" as="alternateBounds" />
          </mxGeometry>
        </mxCell>
        <mxCell id="Pr0mgpjzGMfo_HHlU-Es-102" value="" style="line;strokeWidth=2;html=1;rotation=90;" parent="Pr0mgpjzGMfo_HHlU-Es-97" vertex="1">
          <mxGeometry x="-50.62" y="114.63" width="181.25" height="10" as="geometry" />
        </mxCell>
        <mxCell id="Pr0mgpjzGMfo_HHlU-Es-103" value="" style="shape=table;startSize=0;container=1;collapsible=0;childLayout=tableLayout;fontSize=11;fillColor=none;strokeColor=none;" parent="Pr0mgpjzGMfo_HHlU-Es-97" vertex="1">
          <mxGeometry x="40" y="85" width="130" height="75" as="geometry" />
        </mxCell>
        <mxCell id="Pr0mgpjzGMfo_HHlU-Es-104" value="" style="shape=tableRow;horizontal=0;startSize=0;swimlaneHead=0;swimlaneBody=0;strokeColor=inherit;top=0;left=0;bottom=0;right=0;collapsible=0;dropTarget=0;fillColor=none;points=[[0,0.5],[1,0.5]];portConstraint=eastwest;fontSize=16;" parent="Pr0mgpjzGMfo_HHlU-Es-103" vertex="1">
          <mxGeometry width="130" height="26" as="geometry" />
        </mxCell>
        <mxCell id="Pr0mgpjzGMfo_HHlU-Es-105" value="Degree:varchar(100)" style="shape=partialRectangle;html=1;whiteSpace=wrap;connectable=0;strokeColor=inherit;overflow=hidden;fillColor=none;top=0;left=0;bottom=0;right=0;pointerEvents=1;fontSize=12;align=left;spacingLeft=5;" parent="Pr0mgpjzGMfo_HHlU-Es-104" vertex="1">
          <mxGeometry width="130" height="26" as="geometry">
            <mxRectangle width="130" height="26" as="alternateBounds" />
          </mxGeometry>
        </mxCell>
        <mxCell id="Pr0mgpjzGMfo_HHlU-Es-106" value="" style="shape=tableRow;horizontal=0;startSize=0;swimlaneHead=0;swimlaneBody=0;strokeColor=inherit;top=0;left=0;bottom=0;right=0;collapsible=0;dropTarget=0;fillColor=none;points=[[0,0.5],[1,0.5]];portConstraint=eastwest;fontSize=16;" parent="Pr0mgpjzGMfo_HHlU-Es-103" vertex="1">
          <mxGeometry y="26" width="130" height="23" as="geometry" />
        </mxCell>
        <mxCell id="Pr0mgpjzGMfo_HHlU-Es-107" value="Major: varchar(100)" style="shape=partialRectangle;html=1;whiteSpace=wrap;connectable=0;strokeColor=inherit;overflow=hidden;fillColor=none;top=0;left=0;bottom=0;right=0;pointerEvents=1;fontSize=12;align=left;spacingLeft=5;" parent="Pr0mgpjzGMfo_HHlU-Es-106" vertex="1">
          <mxGeometry width="130" height="23" as="geometry">
            <mxRectangle width="130" height="23" as="alternateBounds" />
          </mxGeometry>
        </mxCell>
        <mxCell id="Pr0mgpjzGMfo_HHlU-Es-108" value="" style="shape=tableRow;horizontal=0;startSize=0;swimlaneHead=0;swimlaneBody=0;strokeColor=inherit;top=0;left=0;bottom=0;right=0;collapsible=0;dropTarget=0;fillColor=none;points=[[0,0.5],[1,0.5]];portConstraint=eastwest;fontSize=16;" parent="Pr0mgpjzGMfo_HHlU-Es-103" vertex="1">
          <mxGeometry y="49" width="130" height="26" as="geometry" />
        </mxCell>
        <mxCell id="Pr0mgpjzGMfo_HHlU-Es-109" value="CandidateID: int" style="shape=partialRectangle;html=1;whiteSpace=wrap;connectable=0;strokeColor=inherit;overflow=hidden;fillColor=none;top=0;left=0;bottom=0;right=0;pointerEvents=1;fontSize=12;align=left;spacingLeft=5;" parent="Pr0mgpjzGMfo_HHlU-Es-108" vertex="1">
          <mxGeometry width="130" height="26" as="geometry">
            <mxRectangle width="130" height="26" as="alternateBounds" />
          </mxGeometry>
        </mxCell>
        <mxCell id="Pr0mgpjzGMfo_HHlU-Es-110" value="PK" style="text;html=1;align=center;verticalAlign=middle;resizable=0;points=[];autosize=1;strokeColor=none;fillColor=none;" parent="Pr0mgpjzGMfo_HHlU-Es-97" vertex="1">
          <mxGeometry y="39" width="40" height="30" as="geometry" />
        </mxCell>
        <mxCell id="Pr0mgpjzGMfo_HHlU-Es-111" value="FK" style="text;html=1;align=center;verticalAlign=middle;resizable=0;points=[];autosize=1;strokeColor=none;fillColor=none;" parent="Pr0mgpjzGMfo_HHlU-Es-97" vertex="1">
          <mxGeometry y="149" width="40" height="30" as="geometry" />
        </mxCell>
        <mxCell id="Pr0mgpjzGMfo_HHlU-Es-116" value="" style="shape=table;startSize=0;container=1;collapsible=0;childLayout=tableLayout;fontSize=11;fillColor=none;strokeColor=none;" parent="Pr0mgpjzGMfo_HHlU-Es-97" vertex="1">
          <mxGeometry x="40" y="160" width="170" height="40" as="geometry" />
        </mxCell>
        <mxCell id="Pr0mgpjzGMfo_HHlU-Es-117" value="" style="shape=tableRow;horizontal=0;startSize=0;swimlaneHead=0;swimlaneBody=0;strokeColor=inherit;top=0;left=0;bottom=0;right=0;collapsible=0;dropTarget=0;fillColor=none;points=[[0,0.5],[1,0.5]];portConstraint=eastwest;fontSize=16;" parent="Pr0mgpjzGMfo_HHlU-Es-116" vertex="1">
          <mxGeometry width="170" height="20" as="geometry" />
        </mxCell>
        <mxCell id="Pr0mgpjzGMfo_HHlU-Es-118" value="UniversityName:varchar(80)" style="shape=partialRectangle;html=1;whiteSpace=wrap;connectable=0;strokeColor=inherit;overflow=hidden;fillColor=none;top=0;left=0;bottom=0;right=0;pointerEvents=1;fontSize=12;align=left;spacingLeft=5;" parent="Pr0mgpjzGMfo_HHlU-Es-117" vertex="1">
          <mxGeometry width="170" height="20" as="geometry">
            <mxRectangle width="170" height="20" as="alternateBounds" />
          </mxGeometry>
        </mxCell>
        <mxCell id="Pr0mgpjzGMfo_HHlU-Es-119" value="" style="shape=tableRow;horizontal=0;startSize=0;swimlaneHead=0;swimlaneBody=0;strokeColor=inherit;top=0;left=0;bottom=0;right=0;collapsible=0;dropTarget=0;fillColor=none;points=[[0,0.5],[1,0.5]];portConstraint=eastwest;fontSize=16;" parent="Pr0mgpjzGMfo_HHlU-Es-116" vertex="1">
          <mxGeometry y="20" width="170" height="20" as="geometry" />
        </mxCell>
        <mxCell id="Pr0mgpjzGMfo_HHlU-Es-120" value="GraduationYear: int" style="shape=partialRectangle;html=1;whiteSpace=wrap;connectable=0;strokeColor=inherit;overflow=hidden;fillColor=none;top=0;left=0;bottom=0;right=0;pointerEvents=1;fontSize=12;align=left;spacingLeft=5;" parent="Pr0mgpjzGMfo_HHlU-Es-119" vertex="1">
          <mxGeometry width="170" height="20" as="geometry">
            <mxRectangle width="170" height="20" as="alternateBounds" />
          </mxGeometry>
        </mxCell>
        <mxCell id="Pr0mgpjzGMfo_HHlU-Es-125" value="JobHistories" style="swimlane;whiteSpace=wrap;html=1;" parent="1" vertex="1">
          <mxGeometry x="1510" y="321" width="180" height="200" as="geometry" />
        </mxCell>
        <mxCell id="Pr0mgpjzGMfo_HHlU-Es-126" value="" style="line;strokeWidth=2;html=1;" parent="Pr0mgpjzGMfo_HHlU-Es-125" vertex="1">
          <mxGeometry y="75" width="180" height="10" as="geometry" />
        </mxCell>
        <mxCell id="Pr0mgpjzGMfo_HHlU-Es-127" value="" style="shape=table;startSize=0;container=1;collapsible=0;childLayout=tableLayout;fontSize=11;fillColor=none;strokeColor=none;" parent="Pr0mgpjzGMfo_HHlU-Es-125" vertex="1">
          <mxGeometry x="40" y="45" width="100" height="18" as="geometry" />
        </mxCell>
        <mxCell id="Pr0mgpjzGMfo_HHlU-Es-128" value="" style="shape=tableRow;horizontal=0;startSize=0;swimlaneHead=0;swimlaneBody=0;strokeColor=inherit;top=0;left=0;bottom=0;right=0;collapsible=0;dropTarget=0;fillColor=none;points=[[0,0.5],[1,0.5]];portConstraint=eastwest;fontSize=16;" parent="Pr0mgpjzGMfo_HHlU-Es-127" vertex="1">
          <mxGeometry width="100" height="18" as="geometry" />
        </mxCell>
        <mxCell id="Pr0mgpjzGMfo_HHlU-Es-129" value="HistoryID" style="shape=partialRectangle;html=1;whiteSpace=wrap;connectable=0;strokeColor=inherit;overflow=hidden;fillColor=none;top=0;left=0;bottom=0;right=0;pointerEvents=1;fontSize=12;align=left;spacingLeft=5;" parent="Pr0mgpjzGMfo_HHlU-Es-128" vertex="1">
          <mxGeometry width="100" height="18" as="geometry">
            <mxRectangle width="100" height="18" as="alternateBounds" />
          </mxGeometry>
        </mxCell>
        <mxCell id="Pr0mgpjzGMfo_HHlU-Es-130" value="" style="line;strokeWidth=2;html=1;rotation=90;" parent="Pr0mgpjzGMfo_HHlU-Es-125" vertex="1">
          <mxGeometry x="-45.62" y="109.63" width="171.25" height="10" as="geometry" />
        </mxCell>
        <mxCell id="Pr0mgpjzGMfo_HHlU-Es-131" value="" style="shape=table;startSize=0;container=1;collapsible=0;childLayout=tableLayout;fontSize=11;fillColor=none;strokeColor=none;" parent="Pr0mgpjzGMfo_HHlU-Es-125" vertex="1">
          <mxGeometry x="40" y="82.5" width="130" height="70" as="geometry" />
        </mxCell>
        <mxCell id="Pr0mgpjzGMfo_HHlU-Es-134" value="" style="shape=tableRow;horizontal=0;startSize=0;swimlaneHead=0;swimlaneBody=0;strokeColor=inherit;top=0;left=0;bottom=0;right=0;collapsible=0;dropTarget=0;fillColor=none;points=[[0,0.5],[1,0.5]];portConstraint=eastwest;fontSize=16;" parent="Pr0mgpjzGMfo_HHlU-Es-131" vertex="1">
          <mxGeometry width="130" height="24" as="geometry" />
        </mxCell>
        <mxCell id="Pr0mgpjzGMfo_HHlU-Es-135" value="CandidateID: int" style="shape=partialRectangle;html=1;whiteSpace=wrap;connectable=0;strokeColor=inherit;overflow=hidden;fillColor=none;top=0;left=0;bottom=0;right=0;pointerEvents=1;fontSize=12;align=left;spacingLeft=5;" parent="Pr0mgpjzGMfo_HHlU-Es-134" vertex="1">
          <mxGeometry width="130" height="24" as="geometry">
            <mxRectangle width="130" height="24" as="alternateBounds" />
          </mxGeometry>
        </mxCell>
        <mxCell id="Pr0mgpjzGMfo_HHlU-Es-154" value="" style="shape=tableRow;horizontal=0;startSize=0;swimlaneHead=0;swimlaneBody=0;strokeColor=inherit;top=0;left=0;bottom=0;right=0;collapsible=0;dropTarget=0;fillColor=none;points=[[0,0.5],[1,0.5]];portConstraint=eastwest;fontSize=16;" parent="Pr0mgpjzGMfo_HHlU-Es-131" vertex="1">
          <mxGeometry y="24" width="130" height="24" as="geometry" />
        </mxCell>
        <mxCell id="Pr0mgpjzGMfo_HHlU-Es-155" value="StartDate:date" style="shape=partialRectangle;html=1;whiteSpace=wrap;connectable=0;strokeColor=inherit;overflow=hidden;fillColor=none;top=0;left=0;bottom=0;right=0;pointerEvents=1;fontSize=12;align=left;spacingLeft=5;" parent="Pr0mgpjzGMfo_HHlU-Es-154" vertex="1">
          <mxGeometry width="130" height="24" as="geometry">
            <mxRectangle width="130" height="24" as="alternateBounds" />
          </mxGeometry>
        </mxCell>
        <mxCell id="Pr0mgpjzGMfo_HHlU-Es-156" value="" style="shape=tableRow;horizontal=0;startSize=0;swimlaneHead=0;swimlaneBody=0;strokeColor=inherit;top=0;left=0;bottom=0;right=0;collapsible=0;dropTarget=0;fillColor=none;points=[[0,0.5],[1,0.5]];portConstraint=eastwest;fontSize=16;" parent="Pr0mgpjzGMfo_HHlU-Es-131" vertex="1">
          <mxGeometry y="48" width="130" height="22" as="geometry" />
        </mxCell>
        <mxCell id="Pr0mgpjzGMfo_HHlU-Es-157" value="EndDate: date" style="shape=partialRectangle;html=1;whiteSpace=wrap;connectable=0;strokeColor=inherit;overflow=hidden;fillColor=none;top=0;left=0;bottom=0;right=0;pointerEvents=1;fontSize=12;align=left;spacingLeft=5;" parent="Pr0mgpjzGMfo_HHlU-Es-156" vertex="1">
          <mxGeometry width="130" height="22" as="geometry">
            <mxRectangle width="130" height="22" as="alternateBounds" />
          </mxGeometry>
        </mxCell>
        <mxCell id="Pr0mgpjzGMfo_HHlU-Es-138" value="PK" style="text;html=1;align=center;verticalAlign=middle;resizable=0;points=[];autosize=1;strokeColor=none;fillColor=none;" parent="Pr0mgpjzGMfo_HHlU-Es-125" vertex="1">
          <mxGeometry y="39" width="40" height="30" as="geometry" />
        </mxCell>
        <mxCell id="Pr0mgpjzGMfo_HHlU-Es-139" value="FK" style="text;html=1;align=center;verticalAlign=middle;resizable=0;points=[];autosize=1;strokeColor=none;fillColor=none;" parent="Pr0mgpjzGMfo_HHlU-Es-125" vertex="1">
          <mxGeometry y="82.5" width="40" height="30" as="geometry" />
        </mxCell>
        <mxCell id="Pr0mgpjzGMfo_HHlU-Es-161" value="Department" style="swimlane;whiteSpace=wrap;html=1;fillColor=#2975FF;shadow=0;" parent="1" vertex="1">
          <mxGeometry x="505" y="490" width="240" height="140" as="geometry" />
        </mxCell>
        <mxCell id="Pr0mgpjzGMfo_HHlU-Es-162" value="" style="line;strokeWidth=2;html=1;" parent="Pr0mgpjzGMfo_HHlU-Es-161" vertex="1">
          <mxGeometry y="75" width="240" height="10" as="geometry" />
        </mxCell>
        <mxCell id="Pr0mgpjzGMfo_HHlU-Es-163" value="" style="shape=table;startSize=0;container=1;collapsible=0;childLayout=tableLayout;fontSize=11;fillColor=none;strokeColor=none;" parent="Pr0mgpjzGMfo_HHlU-Es-161" vertex="1">
          <mxGeometry x="40" y="45" width="100" height="18" as="geometry" />
        </mxCell>
        <mxCell id="Pr0mgpjzGMfo_HHlU-Es-164" value="" style="shape=tableRow;horizontal=0;startSize=0;swimlaneHead=0;swimlaneBody=0;strokeColor=inherit;top=0;left=0;bottom=0;right=0;collapsible=0;dropTarget=0;fillColor=none;points=[[0,0.5],[1,0.5]];portConstraint=eastwest;fontSize=16;" parent="Pr0mgpjzGMfo_HHlU-Es-163" vertex="1">
          <mxGeometry width="100" height="18" as="geometry" />
        </mxCell>
        <mxCell id="Pr0mgpjzGMfo_HHlU-Es-165" value="DepartmentID" style="shape=partialRectangle;html=1;whiteSpace=wrap;connectable=0;strokeColor=inherit;overflow=hidden;fillColor=none;top=0;left=0;bottom=0;right=0;pointerEvents=1;fontSize=12;align=left;spacingLeft=5;" parent="Pr0mgpjzGMfo_HHlU-Es-164" vertex="1">
          <mxGeometry width="100" height="18" as="geometry">
            <mxRectangle width="100" height="18" as="alternateBounds" />
          </mxGeometry>
        </mxCell>
        <mxCell id="Pr0mgpjzGMfo_HHlU-Es-166" value="" style="line;strokeWidth=2;html=1;rotation=90;" parent="Pr0mgpjzGMfo_HHlU-Es-161" vertex="1">
          <mxGeometry x="-15.89" y="77.4" width="111.79" height="10" as="geometry" />
        </mxCell>
        <mxCell id="Pr0mgpjzGMfo_HHlU-Es-167" value="" style="shape=table;startSize=0;container=1;collapsible=0;childLayout=tableLayout;fontSize=11;fillColor=none;strokeColor=none;" parent="Pr0mgpjzGMfo_HHlU-Es-161" vertex="1">
          <mxGeometry x="41" y="85" width="199" height="55" as="geometry" />
        </mxCell>
        <mxCell id="Pr0mgpjzGMfo_HHlU-Es-168" value="" style="shape=tableRow;horizontal=0;startSize=0;swimlaneHead=0;swimlaneBody=0;strokeColor=inherit;top=0;left=0;bottom=0;right=0;collapsible=0;dropTarget=0;fillColor=none;points=[[0,0.5],[1,0.5]];portConstraint=eastwest;fontSize=16;" parent="Pr0mgpjzGMfo_HHlU-Es-167" vertex="1">
          <mxGeometry width="199" height="28" as="geometry" />
        </mxCell>
        <mxCell id="Pr0mgpjzGMfo_HHlU-Es-169" value="DepartmentName:varchar(255)" style="shape=partialRectangle;html=1;whiteSpace=wrap;connectable=0;strokeColor=inherit;overflow=hidden;fillColor=none;top=0;left=0;bottom=0;right=0;pointerEvents=1;fontSize=12;align=left;spacingLeft=5;" parent="Pr0mgpjzGMfo_HHlU-Es-168" vertex="1">
          <mxGeometry width="199" height="28" as="geometry">
            <mxRectangle width="199" height="28" as="alternateBounds" />
          </mxGeometry>
        </mxCell>
        <mxCell id="Pr0mgpjzGMfo_HHlU-Es-170" value="" style="shape=tableRow;horizontal=0;startSize=0;swimlaneHead=0;swimlaneBody=0;strokeColor=inherit;top=0;left=0;bottom=0;right=0;collapsible=0;dropTarget=0;fillColor=none;points=[[0,0.5],[1,0.5]];portConstraint=eastwest;fontSize=16;" parent="Pr0mgpjzGMfo_HHlU-Es-167" vertex="1">
          <mxGeometry y="28" width="199" height="27" as="geometry" />
        </mxCell>
        <mxCell id="Pr0mgpjzGMfo_HHlU-Es-171" value="" style="shape=partialRectangle;html=1;whiteSpace=wrap;connectable=0;strokeColor=inherit;overflow=hidden;fillColor=none;top=0;left=0;bottom=0;right=0;pointerEvents=1;fontSize=12;align=left;spacingLeft=5;" parent="Pr0mgpjzGMfo_HHlU-Es-170" vertex="1">
          <mxGeometry width="199" height="27" as="geometry">
            <mxRectangle width="199" height="27" as="alternateBounds" />
          </mxGeometry>
        </mxCell>
        <mxCell id="Pr0mgpjzGMfo_HHlU-Es-172" value="PK" style="text;html=1;align=center;verticalAlign=middle;resizable=0;points=[];autosize=1;strokeColor=none;fillColor=none;" parent="Pr0mgpjzGMfo_HHlU-Es-161" vertex="1">
          <mxGeometry y="39" width="40" height="30" as="geometry" />
        </mxCell>
        <mxCell id="Pr0mgpjzGMfo_HHlU-Es-174" value="JobRegion" style="swimlane;whiteSpace=wrap;html=1;startSize=23;fillColor=#2975FF;" parent="1" vertex="1">
          <mxGeometry x="900" y="170" width="244.11" height="150" as="geometry" />
        </mxCell>
        <mxCell id="Pr0mgpjzGMfo_HHlU-Es-175" value="" style="line;strokeWidth=2;html=1;" parent="Pr0mgpjzGMfo_HHlU-Es-174" vertex="1">
          <mxGeometry y="75" width="240" height="10" as="geometry" />
        </mxCell>
        <mxCell id="Pr0mgpjzGMfo_HHlU-Es-176" value="" style="shape=table;startSize=0;container=1;collapsible=0;childLayout=tableLayout;fontSize=11;fillColor=none;strokeColor=none;" parent="Pr0mgpjzGMfo_HHlU-Es-174" vertex="1">
          <mxGeometry x="40" y="45" width="100" height="18" as="geometry" />
        </mxCell>
        <mxCell id="Pr0mgpjzGMfo_HHlU-Es-177" value="" style="shape=tableRow;horizontal=0;startSize=0;swimlaneHead=0;swimlaneBody=0;strokeColor=inherit;top=0;left=0;bottom=0;right=0;collapsible=0;dropTarget=0;fillColor=none;points=[[0,0.5],[1,0.5]];portConstraint=eastwest;fontSize=16;" parent="Pr0mgpjzGMfo_HHlU-Es-176" vertex="1">
          <mxGeometry width="100" height="18" as="geometry" />
        </mxCell>
        <mxCell id="Pr0mgpjzGMfo_HHlU-Es-178" value="RegionID" style="shape=partialRectangle;html=1;whiteSpace=wrap;connectable=0;strokeColor=inherit;overflow=hidden;fillColor=none;top=0;left=0;bottom=0;right=0;pointerEvents=1;fontSize=12;align=left;spacingLeft=5;" parent="Pr0mgpjzGMfo_HHlU-Es-177" vertex="1">
          <mxGeometry width="100" height="18" as="geometry">
            <mxRectangle width="100" height="18" as="alternateBounds" />
          </mxGeometry>
        </mxCell>
        <mxCell id="Pr0mgpjzGMfo_HHlU-Es-179" value="" style="line;strokeWidth=2;html=1;rotation=90;" parent="Pr0mgpjzGMfo_HHlU-Es-174" vertex="1">
          <mxGeometry x="-23.06" y="81.94" width="126.12" height="10" as="geometry" />
        </mxCell>
        <mxCell id="Pr0mgpjzGMfo_HHlU-Es-180" value="" style="shape=table;startSize=0;container=1;collapsible=0;childLayout=tableLayout;fontSize=11;fillColor=none;strokeColor=none;" parent="Pr0mgpjzGMfo_HHlU-Es-174" vertex="1">
          <mxGeometry x="41" y="85" width="199" height="28" as="geometry" />
        </mxCell>
        <mxCell id="Pr0mgpjzGMfo_HHlU-Es-181" value="" style="shape=tableRow;horizontal=0;startSize=0;swimlaneHead=0;swimlaneBody=0;strokeColor=inherit;top=0;left=0;bottom=0;right=0;collapsible=0;dropTarget=0;fillColor=none;points=[[0,0.5],[1,0.5]];portConstraint=eastwest;fontSize=16;" parent="Pr0mgpjzGMfo_HHlU-Es-180" vertex="1">
          <mxGeometry width="199" height="28" as="geometry" />
        </mxCell>
        <mxCell id="Pr0mgpjzGMfo_HHlU-Es-182" value="RegionName:varchar(255)" style="shape=partialRectangle;html=1;whiteSpace=wrap;connectable=0;strokeColor=inherit;overflow=hidden;fillColor=none;top=0;left=0;bottom=0;right=0;pointerEvents=1;fontSize=12;align=left;spacingLeft=5;" parent="Pr0mgpjzGMfo_HHlU-Es-181" vertex="1">
          <mxGeometry width="199" height="28" as="geometry">
            <mxRectangle width="199" height="28" as="alternateBounds" />
          </mxGeometry>
        </mxCell>
        <mxCell id="it6m6Rma9egd-yF74jtZ-41" value="FK" style="text;html=1;align=center;verticalAlign=middle;resizable=0;points=[];autosize=1;strokeColor=none;fillColor=none;" vertex="1" parent="Pr0mgpjzGMfo_HHlU-Es-174">
          <mxGeometry x="1" y="113" width="40" height="30" as="geometry" />
        </mxCell>
        <mxCell id="Pr0mgpjzGMfo_HHlU-Es-183" value="PK" style="text;html=1;align=center;verticalAlign=middle;resizable=0;points=[];autosize=1;strokeColor=none;fillColor=none;" parent="Pr0mgpjzGMfo_HHlU-Es-174" vertex="1">
          <mxGeometry x="1" y="39" width="40" height="30" as="geometry" />
        </mxCell>
        <mxCell id="it6m6Rma9egd-yF74jtZ-40" value="CityID:int" style="shape=partialRectangle;html=1;whiteSpace=wrap;connectable=0;strokeColor=inherit;overflow=hidden;fillColor=none;top=0;left=0;bottom=0;right=0;pointerEvents=1;fontSize=12;align=left;spacingLeft=5;" vertex="1" parent="Pr0mgpjzGMfo_HHlU-Es-174">
          <mxGeometry x="40" y="115" width="199" height="28" as="geometry">
            <mxRectangle width="199" height="28" as="alternateBounds" />
          </mxGeometry>
        </mxCell>
        <mxCell id="Pr0mgpjzGMfo_HHlU-Es-184" value="ZipCode" style="swimlane;whiteSpace=wrap;html=1;" parent="1" vertex="1">
          <mxGeometry x="1520" y="1080" width="240" height="120" as="geometry" />
        </mxCell>
        <mxCell id="Pr0mgpjzGMfo_HHlU-Es-185" value="" style="line;strokeWidth=2;html=1;" parent="Pr0mgpjzGMfo_HHlU-Es-184" vertex="1">
          <mxGeometry y="75" width="240" height="10" as="geometry" />
        </mxCell>
        <mxCell id="Pr0mgpjzGMfo_HHlU-Es-186" value="" style="shape=table;startSize=0;container=1;collapsible=0;childLayout=tableLayout;fontSize=11;fillColor=none;strokeColor=none;" parent="Pr0mgpjzGMfo_HHlU-Es-184" vertex="1">
          <mxGeometry x="40" y="45" width="100" height="18" as="geometry" />
        </mxCell>
        <mxCell id="Pr0mgpjzGMfo_HHlU-Es-187" value="" style="shape=tableRow;horizontal=0;startSize=0;swimlaneHead=0;swimlaneBody=0;strokeColor=inherit;top=0;left=0;bottom=0;right=0;collapsible=0;dropTarget=0;fillColor=none;points=[[0,0.5],[1,0.5]];portConstraint=eastwest;fontSize=16;" parent="Pr0mgpjzGMfo_HHlU-Es-186" vertex="1">
          <mxGeometry width="100" height="18" as="geometry" />
        </mxCell>
        <mxCell id="Pr0mgpjzGMfo_HHlU-Es-188" value="ZipCodeID" style="shape=partialRectangle;html=1;whiteSpace=wrap;connectable=0;strokeColor=inherit;overflow=hidden;fillColor=none;top=0;left=0;bottom=0;right=0;pointerEvents=1;fontSize=12;align=left;spacingLeft=5;" parent="Pr0mgpjzGMfo_HHlU-Es-187" vertex="1">
          <mxGeometry width="100" height="18" as="geometry">
            <mxRectangle width="100" height="18" as="alternateBounds" />
          </mxGeometry>
        </mxCell>
        <mxCell id="Pr0mgpjzGMfo_HHlU-Es-189" value="" style="line;strokeWidth=2;html=1;rotation=90;" parent="Pr0mgpjzGMfo_HHlU-Es-184" vertex="1">
          <mxGeometry x="-7.94" y="69.45" width="95.89" height="10" as="geometry" />
        </mxCell>
        <mxCell id="Pr0mgpjzGMfo_HHlU-Es-190" value="" style="shape=table;startSize=0;container=1;collapsible=0;childLayout=tableLayout;fontSize=11;fillColor=none;strokeColor=none;" parent="Pr0mgpjzGMfo_HHlU-Es-184" vertex="1">
          <mxGeometry x="41" y="85" width="199" height="28" as="geometry" />
        </mxCell>
        <mxCell id="Pr0mgpjzGMfo_HHlU-Es-191" value="" style="shape=tableRow;horizontal=0;startSize=0;swimlaneHead=0;swimlaneBody=0;strokeColor=inherit;top=0;left=0;bottom=0;right=0;collapsible=0;dropTarget=0;fillColor=none;points=[[0,0.5],[1,0.5]];portConstraint=eastwest;fontSize=16;" parent="Pr0mgpjzGMfo_HHlU-Es-190" vertex="1">
          <mxGeometry width="199" height="28" as="geometry" />
        </mxCell>
        <mxCell id="Pr0mgpjzGMfo_HHlU-Es-192" value="ZipCode: int" style="shape=partialRectangle;html=1;whiteSpace=wrap;connectable=0;strokeColor=inherit;overflow=hidden;fillColor=none;top=0;left=0;bottom=0;right=0;pointerEvents=1;fontSize=12;align=left;spacingLeft=5;" parent="Pr0mgpjzGMfo_HHlU-Es-191" vertex="1">
          <mxGeometry width="199" height="28" as="geometry">
            <mxRectangle width="199" height="28" as="alternateBounds" />
          </mxGeometry>
        </mxCell>
        <mxCell id="Pr0mgpjzGMfo_HHlU-Es-193" value="PK" style="text;html=1;align=center;verticalAlign=middle;resizable=0;points=[];autosize=1;strokeColor=none;fillColor=none;" parent="Pr0mgpjzGMfo_HHlU-Es-184" vertex="1">
          <mxGeometry y="39" width="40" height="30" as="geometry" />
        </mxCell>
        <mxCell id="Pr0mgpjzGMfo_HHlU-Es-194" value="City" style="swimlane;whiteSpace=wrap;html=1;fillColor=#2975FF;" parent="1" vertex="1">
          <mxGeometry x="902.06" y="485" width="240" height="150" as="geometry" />
        </mxCell>
        <mxCell id="Pr0mgpjzGMfo_HHlU-Es-195" value="" style="line;strokeWidth=2;html=1;" parent="Pr0mgpjzGMfo_HHlU-Es-194" vertex="1">
          <mxGeometry y="75" width="240" height="10" as="geometry" />
        </mxCell>
        <mxCell id="Pr0mgpjzGMfo_HHlU-Es-196" value="" style="shape=table;startSize=0;container=1;collapsible=0;childLayout=tableLayout;fontSize=11;fillColor=none;strokeColor=none;" parent="Pr0mgpjzGMfo_HHlU-Es-194" vertex="1">
          <mxGeometry x="40" y="45" width="100" height="18" as="geometry" />
        </mxCell>
        <mxCell id="Pr0mgpjzGMfo_HHlU-Es-197" value="" style="shape=tableRow;horizontal=0;startSize=0;swimlaneHead=0;swimlaneBody=0;strokeColor=inherit;top=0;left=0;bottom=0;right=0;collapsible=0;dropTarget=0;fillColor=none;points=[[0,0.5],[1,0.5]];portConstraint=eastwest;fontSize=16;" parent="Pr0mgpjzGMfo_HHlU-Es-196" vertex="1">
          <mxGeometry width="100" height="18" as="geometry" />
        </mxCell>
        <mxCell id="Pr0mgpjzGMfo_HHlU-Es-198" value="CityID" style="shape=partialRectangle;html=1;whiteSpace=wrap;connectable=0;strokeColor=inherit;overflow=hidden;fillColor=none;top=0;left=0;bottom=0;right=0;pointerEvents=1;fontSize=12;align=left;spacingLeft=5;" parent="Pr0mgpjzGMfo_HHlU-Es-197" vertex="1">
          <mxGeometry width="100" height="18" as="geometry">
            <mxRectangle width="100" height="18" as="alternateBounds" />
          </mxGeometry>
        </mxCell>
        <mxCell id="Pr0mgpjzGMfo_HHlU-Es-199" value="" style="line;strokeWidth=2;html=1;rotation=90;" parent="Pr0mgpjzGMfo_HHlU-Es-194" vertex="1">
          <mxGeometry x="-19.47" y="80.98" width="118.96" height="10" as="geometry" />
        </mxCell>
        <mxCell id="Pr0mgpjzGMfo_HHlU-Es-200" value="" style="shape=table;startSize=0;container=1;collapsible=0;childLayout=tableLayout;fontSize=11;fillColor=none;strokeColor=none;" parent="Pr0mgpjzGMfo_HHlU-Es-194" vertex="1">
          <mxGeometry x="41" y="85" width="199" height="25" as="geometry" />
        </mxCell>
        <mxCell id="Pr0mgpjzGMfo_HHlU-Es-201" value="" style="shape=tableRow;horizontal=0;startSize=0;swimlaneHead=0;swimlaneBody=0;strokeColor=inherit;top=0;left=0;bottom=0;right=0;collapsible=0;dropTarget=0;fillColor=none;points=[[0,0.5],[1,0.5]];portConstraint=eastwest;fontSize=16;" parent="Pr0mgpjzGMfo_HHlU-Es-200" vertex="1">
          <mxGeometry width="199" height="25" as="geometry" />
        </mxCell>
        <mxCell id="Pr0mgpjzGMfo_HHlU-Es-202" value="CityName: varchar(255)" style="shape=partialRectangle;html=1;whiteSpace=wrap;connectable=0;strokeColor=inherit;overflow=hidden;fillColor=none;top=0;left=0;bottom=0;right=0;pointerEvents=1;fontSize=12;align=left;spacingLeft=5;" parent="Pr0mgpjzGMfo_HHlU-Es-201" vertex="1">
          <mxGeometry width="199" height="25" as="geometry">
            <mxRectangle width="199" height="25" as="alternateBounds" />
          </mxGeometry>
        </mxCell>
        <mxCell id="Pr0mgpjzGMfo_HHlU-Es-203" value="PK" style="text;html=1;align=center;verticalAlign=middle;resizable=0;points=[];autosize=1;strokeColor=none;fillColor=none;" parent="Pr0mgpjzGMfo_HHlU-Es-194" vertex="1">
          <mxGeometry y="39" width="40" height="30" as="geometry" />
        </mxCell>
        <mxCell id="FspfbSlliUGgCetE-tHI-1" value="" style="shape=table;startSize=0;container=1;collapsible=0;childLayout=tableLayout;fontSize=11;fillColor=none;strokeColor=none;" vertex="1" parent="Pr0mgpjzGMfo_HHlU-Es-194">
          <mxGeometry x="41" y="110" width="199" height="25" as="geometry" />
        </mxCell>
        <mxCell id="FspfbSlliUGgCetE-tHI-2" value="" style="shape=tableRow;horizontal=0;startSize=0;swimlaneHead=0;swimlaneBody=0;strokeColor=inherit;top=0;left=0;bottom=0;right=0;collapsible=0;dropTarget=0;fillColor=none;points=[[0,0.5],[1,0.5]];portConstraint=eastwest;fontSize=16;" vertex="1" parent="FspfbSlliUGgCetE-tHI-1">
          <mxGeometry width="199" height="25" as="geometry" />
        </mxCell>
        <mxCell id="FspfbSlliUGgCetE-tHI-3" value="StateID: int" style="shape=partialRectangle;html=1;whiteSpace=wrap;connectable=0;strokeColor=inherit;overflow=hidden;fillColor=none;top=0;left=0;bottom=0;right=0;pointerEvents=1;fontSize=12;align=left;spacingLeft=5;" vertex="1" parent="FspfbSlliUGgCetE-tHI-2">
          <mxGeometry width="199" height="25" as="geometry">
            <mxRectangle width="199" height="25" as="alternateBounds" />
          </mxGeometry>
        </mxCell>
        <mxCell id="FspfbSlliUGgCetE-tHI-4" value="FK" style="text;html=1;align=center;verticalAlign=middle;resizable=0;points=[];autosize=1;strokeColor=none;fillColor=none;" vertex="1" parent="Pr0mgpjzGMfo_HHlU-Es-194">
          <mxGeometry y="105" width="40" height="30" as="geometry" />
        </mxCell>
        <mxCell id="it6m6Rma9egd-yF74jtZ-11" value="" style="shape=tableRow;horizontal=0;startSize=0;swimlaneHead=0;swimlaneBody=0;strokeColor=inherit;top=0;left=0;bottom=0;right=0;collapsible=0;dropTarget=0;fillColor=none;points=[[0,0.5],[1,0.5]];portConstraint=eastwest;fontSize=16;" vertex="1" parent="1">
          <mxGeometry x="100" y="287" width="210" height="34" as="geometry" />
        </mxCell>
        <mxCell id="it6m6Rma9egd-yF74jtZ-16" value="Candidates" style="swimlane;whiteSpace=wrap;html=1;fillColor=#2975FF;strokeColor=#A680B8;" vertex="1" parent="1">
          <mxGeometry x="80" y="80" width="280" height="262" as="geometry" />
        </mxCell>
        <mxCell id="it6m6Rma9egd-yF74jtZ-17" value="" style="line;strokeWidth=2;html=1;" vertex="1" parent="it6m6Rma9egd-yF74jtZ-16">
          <mxGeometry y="75" width="280" height="10" as="geometry" />
        </mxCell>
        <mxCell id="it6m6Rma9egd-yF74jtZ-18" value="" style="shape=table;startSize=0;container=1;collapsible=0;childLayout=tableLayout;fontSize=11;fillColor=none;strokeColor=none;" vertex="1" parent="it6m6Rma9egd-yF74jtZ-16">
          <mxGeometry x="40" y="45" width="100" height="18" as="geometry" />
        </mxCell>
        <mxCell id="it6m6Rma9egd-yF74jtZ-19" value="" style="shape=tableRow;horizontal=0;startSize=0;swimlaneHead=0;swimlaneBody=0;strokeColor=inherit;top=0;left=0;bottom=0;right=0;collapsible=0;dropTarget=0;fillColor=none;points=[[0,0.5],[1,0.5]];portConstraint=eastwest;fontSize=16;" vertex="1" parent="it6m6Rma9egd-yF74jtZ-18">
          <mxGeometry width="100" height="18" as="geometry" />
        </mxCell>
        <mxCell id="it6m6Rma9egd-yF74jtZ-20" value="CandidateID" style="shape=partialRectangle;html=1;whiteSpace=wrap;connectable=0;strokeColor=inherit;overflow=hidden;fillColor=none;top=0;left=0;bottom=0;right=0;pointerEvents=1;fontSize=12;align=left;spacingLeft=5;" vertex="1" parent="it6m6Rma9egd-yF74jtZ-19">
          <mxGeometry width="100" height="18" as="geometry">
            <mxRectangle width="100" height="18" as="alternateBounds" />
          </mxGeometry>
        </mxCell>
        <mxCell id="it6m6Rma9egd-yF74jtZ-21" value="" style="line;strokeWidth=2;html=1;rotation=90;" vertex="1" parent="it6m6Rma9egd-yF74jtZ-16">
          <mxGeometry x="-73.91" y="137.92" width="227.81" height="10" as="geometry" />
        </mxCell>
        <mxCell id="it6m6Rma9egd-yF74jtZ-22" value="" style="shape=table;startSize=0;container=1;collapsible=0;childLayout=tableLayout;fontSize=11;fillColor=none;strokeColor=none;" vertex="1" parent="it6m6Rma9egd-yF74jtZ-16">
          <mxGeometry x="40" y="85" width="200" height="85" as="geometry" />
        </mxCell>
        <mxCell id="it6m6Rma9egd-yF74jtZ-23" value="" style="shape=tableRow;horizontal=0;startSize=0;swimlaneHead=0;swimlaneBody=0;strokeColor=inherit;top=0;left=0;bottom=0;right=0;collapsible=0;dropTarget=0;fillColor=none;points=[[0,0.5],[1,0.5]];portConstraint=eastwest;fontSize=16;" vertex="1" parent="it6m6Rma9egd-yF74jtZ-22">
          <mxGeometry width="200" height="29" as="geometry" />
        </mxCell>
        <mxCell id="it6m6Rma9egd-yF74jtZ-24" value="Email:nvarchar(320)" style="shape=partialRectangle;html=1;whiteSpace=wrap;connectable=0;strokeColor=inherit;overflow=hidden;fillColor=none;top=0;left=0;bottom=0;right=0;pointerEvents=1;fontSize=12;align=left;spacingLeft=5;" vertex="1" parent="it6m6Rma9egd-yF74jtZ-23">
          <mxGeometry width="200" height="29" as="geometry">
            <mxRectangle width="200" height="29" as="alternateBounds" />
          </mxGeometry>
        </mxCell>
        <mxCell id="it6m6Rma9egd-yF74jtZ-25" value="" style="shape=tableRow;horizontal=0;startSize=0;swimlaneHead=0;swimlaneBody=0;strokeColor=inherit;top=0;left=0;bottom=0;right=0;collapsible=0;dropTarget=0;fillColor=none;points=[[0,0.5],[1,0.5]];portConstraint=eastwest;fontSize=16;" vertex="1" parent="it6m6Rma9egd-yF74jtZ-22">
          <mxGeometry y="29" width="200" height="27" as="geometry" />
        </mxCell>
        <mxCell id="it6m6Rma9egd-yF74jtZ-26" value="PhoneNumber: nvarchar(20)" style="shape=partialRectangle;html=1;whiteSpace=wrap;connectable=0;strokeColor=inherit;overflow=hidden;fillColor=none;top=0;left=0;bottom=0;right=0;pointerEvents=1;fontSize=12;align=left;spacingLeft=5;" vertex="1" parent="it6m6Rma9egd-yF74jtZ-25">
          <mxGeometry width="200" height="27" as="geometry">
            <mxRectangle width="200" height="27" as="alternateBounds" />
          </mxGeometry>
        </mxCell>
        <mxCell id="it6m6Rma9egd-yF74jtZ-27" value="" style="shape=tableRow;horizontal=0;startSize=0;swimlaneHead=0;swimlaneBody=0;strokeColor=inherit;top=0;left=0;bottom=0;right=0;collapsible=0;dropTarget=0;fillColor=none;points=[[0,0.5],[1,0.5]];portConstraint=eastwest;fontSize=16;" vertex="1" parent="it6m6Rma9egd-yF74jtZ-22">
          <mxGeometry y="56" width="200" height="29" as="geometry" />
        </mxCell>
        <mxCell id="it6m6Rma9egd-yF74jtZ-28" value="AddressID:int" style="shape=partialRectangle;html=1;whiteSpace=wrap;connectable=0;strokeColor=inherit;overflow=hidden;fillColor=none;top=0;left=0;bottom=0;right=0;pointerEvents=1;fontSize=12;align=left;spacingLeft=5;" vertex="1" parent="it6m6Rma9egd-yF74jtZ-27">
          <mxGeometry width="200" height="29" as="geometry">
            <mxRectangle width="200" height="29" as="alternateBounds" />
          </mxGeometry>
        </mxCell>
        <mxCell id="it6m6Rma9egd-yF74jtZ-29" value="PK" style="text;html=1;align=center;verticalAlign=middle;resizable=0;points=[];autosize=1;strokeColor=none;fillColor=none;" vertex="1" parent="it6m6Rma9egd-yF74jtZ-16">
          <mxGeometry y="39" width="40" height="30" as="geometry" />
        </mxCell>
        <mxCell id="it6m6Rma9egd-yF74jtZ-30" value="FK" style="text;html=1;align=center;verticalAlign=middle;resizable=0;points=[];autosize=1;strokeColor=none;fillColor=none;" vertex="1" parent="it6m6Rma9egd-yF74jtZ-16">
          <mxGeometry y="140" width="40" height="30" as="geometry" />
        </mxCell>
        <mxCell id="it6m6Rma9egd-yF74jtZ-31" value="Candidate_Lname: varchar(50)" style="shape=partialRectangle;html=1;whiteSpace=wrap;connectable=0;strokeColor=#3F32FF;overflow=hidden;fillColor=none;top=0;left=0;bottom=0;right=0;pointerEvents=1;fontSize=12;align=left;spacingLeft=5;" vertex="1" parent="it6m6Rma9egd-yF74jtZ-16">
          <mxGeometry x="40" y="200" width="210" height="34" as="geometry">
            <mxRectangle width="130" height="34" as="alternateBounds" />
          </mxGeometry>
        </mxCell>
        <mxCell id="it6m6Rma9egd-yF74jtZ-32" value="Candidate_Fname: varchar(50)" style="shape=partialRectangle;html=1;whiteSpace=wrap;connectable=0;strokeColor=inherit;overflow=hidden;fillColor=none;top=0;left=0;bottom=0;right=0;pointerEvents=1;fontSize=12;align=left;spacingLeft=5;" vertex="1" parent="it6m6Rma9egd-yF74jtZ-16">
          <mxGeometry x="40" y="170" width="210" height="34" as="geometry">
            <mxRectangle width="130" height="34" as="alternateBounds" />
          </mxGeometry>
        </mxCell>
        <mxCell id="it6m6Rma9egd-yF74jtZ-33" value="JobID: int" style="shape=partialRectangle;html=1;whiteSpace=wrap;connectable=0;strokeColor=inherit;overflow=hidden;fillColor=none;top=0;left=0;bottom=0;right=0;pointerEvents=1;fontSize=12;align=left;spacingLeft=5;" vertex="1" parent="it6m6Rma9egd-yF74jtZ-16">
          <mxGeometry x="40" y="230" width="210" height="34" as="geometry">
            <mxRectangle width="130" height="34" as="alternateBounds" />
          </mxGeometry>
        </mxCell>
        <mxCell id="it6m6Rma9egd-yF74jtZ-34" value="FK" style="text;html=1;align=center;verticalAlign=middle;resizable=0;points=[];autosize=1;strokeColor=none;fillColor=none;" vertex="1" parent="it6m6Rma9egd-yF74jtZ-16">
          <mxGeometry y="232" width="40" height="30" as="geometry" />
        </mxCell>
        <mxCell id="it6m6Rma9egd-yF74jtZ-37" value="" style="shape=tableRow;horizontal=0;startSize=0;swimlaneHead=0;swimlaneBody=0;strokeColor=inherit;top=0;left=0;bottom=0;right=0;collapsible=0;dropTarget=0;fillColor=none;points=[[0,0.5],[1,0.5]];portConstraint=eastwest;fontSize=16;" vertex="1" parent="1">
          <mxGeometry x="1080" y="364" width="130" height="20" as="geometry" />
        </mxCell>
        <mxCell id="it6m6Rma9egd-yF74jtZ-39" value="" style="shape=tableRow;horizontal=0;startSize=0;swimlaneHead=0;swimlaneBody=0;strokeColor=inherit;top=0;left=0;bottom=0;right=0;collapsible=0;dropTarget=0;fillColor=none;points=[[0,0.5],[1,0.5]];portConstraint=eastwest;fontSize=16;" vertex="1" parent="1">
          <mxGeometry x="170" y="883" width="199" height="28" as="geometry" />
        </mxCell>
        <mxCell id="2WAHeVZ7TYDiuwxwndKq-1" value="Application" style="swimlane;whiteSpace=wrap;html=1;fillColor=#2975FF;" vertex="1" parent="1">
          <mxGeometry x="80.01" y="760" width="280" height="210" as="geometry" />
        </mxCell>
        <mxCell id="2WAHeVZ7TYDiuwxwndKq-2" value="" style="line;strokeWidth=2;html=1;" vertex="1" parent="2WAHeVZ7TYDiuwxwndKq-1">
          <mxGeometry y="75" width="280" height="10" as="geometry" />
        </mxCell>
        <mxCell id="2WAHeVZ7TYDiuwxwndKq-3" value="" style="shape=table;startSize=0;container=1;collapsible=0;childLayout=tableLayout;fontSize=11;fillColor=none;strokeColor=none;" vertex="1" parent="2WAHeVZ7TYDiuwxwndKq-1">
          <mxGeometry x="40" y="45" width="100" height="18" as="geometry" />
        </mxCell>
        <mxCell id="2WAHeVZ7TYDiuwxwndKq-4" value="" style="shape=tableRow;horizontal=0;startSize=0;swimlaneHead=0;swimlaneBody=0;strokeColor=inherit;top=0;left=0;bottom=0;right=0;collapsible=0;dropTarget=0;fillColor=none;points=[[0,0.5],[1,0.5]];portConstraint=eastwest;fontSize=16;" vertex="1" parent="2WAHeVZ7TYDiuwxwndKq-3">
          <mxGeometry width="100" height="18" as="geometry" />
        </mxCell>
        <mxCell id="2WAHeVZ7TYDiuwxwndKq-5" value="ApplicationID" style="shape=partialRectangle;html=1;whiteSpace=wrap;connectable=0;strokeColor=inherit;overflow=hidden;fillColor=none;top=0;left=0;bottom=0;right=0;pointerEvents=1;fontSize=12;align=left;spacingLeft=5;" vertex="1" parent="2WAHeVZ7TYDiuwxwndKq-4">
          <mxGeometry width="100" height="18" as="geometry">
            <mxRectangle width="100" height="18" as="alternateBounds" />
          </mxGeometry>
        </mxCell>
        <mxCell id="2WAHeVZ7TYDiuwxwndKq-6" value="" style="line;strokeWidth=2;html=1;rotation=90;" vertex="1" parent="2WAHeVZ7TYDiuwxwndKq-1">
          <mxGeometry x="-50.98" y="114.99" width="181.96" height="10" as="geometry" />
        </mxCell>
        <mxCell id="2WAHeVZ7TYDiuwxwndKq-7" value="" style="shape=table;startSize=0;container=1;collapsible=0;childLayout=tableLayout;fontSize=11;fillColor=none;strokeColor=none;" vertex="1" parent="2WAHeVZ7TYDiuwxwndKq-1">
          <mxGeometry x="40" y="85" width="200" height="85" as="geometry" />
        </mxCell>
        <mxCell id="2WAHeVZ7TYDiuwxwndKq-8" value="" style="shape=tableRow;horizontal=0;startSize=0;swimlaneHead=0;swimlaneBody=0;strokeColor=inherit;top=0;left=0;bottom=0;right=0;collapsible=0;dropTarget=0;fillColor=none;points=[[0,0.5],[1,0.5]];portConstraint=eastwest;fontSize=16;" vertex="1" parent="2WAHeVZ7TYDiuwxwndKq-7">
          <mxGeometry width="200" height="29" as="geometry" />
        </mxCell>
        <mxCell id="2WAHeVZ7TYDiuwxwndKq-9" value="CandidateID: int" style="shape=partialRectangle;html=1;whiteSpace=wrap;connectable=0;strokeColor=inherit;overflow=hidden;fillColor=none;top=0;left=0;bottom=0;right=0;pointerEvents=1;fontSize=12;align=left;spacingLeft=5;" vertex="1" parent="2WAHeVZ7TYDiuwxwndKq-8">
          <mxGeometry width="200" height="29" as="geometry">
            <mxRectangle width="200" height="29" as="alternateBounds" />
          </mxGeometry>
        </mxCell>
        <mxCell id="2WAHeVZ7TYDiuwxwndKq-10" value="" style="shape=tableRow;horizontal=0;startSize=0;swimlaneHead=0;swimlaneBody=0;strokeColor=inherit;top=0;left=0;bottom=0;right=0;collapsible=0;dropTarget=0;fillColor=none;points=[[0,0.5],[1,0.5]];portConstraint=eastwest;fontSize=16;" vertex="1" parent="2WAHeVZ7TYDiuwxwndKq-7">
          <mxGeometry y="29" width="200" height="27" as="geometry" />
        </mxCell>
        <mxCell id="2WAHeVZ7TYDiuwxwndKq-11" value="JobId: int" style="shape=partialRectangle;html=1;whiteSpace=wrap;connectable=0;strokeColor=inherit;overflow=hidden;fillColor=none;top=0;left=0;bottom=0;right=0;pointerEvents=1;fontSize=12;align=left;spacingLeft=5;" vertex="1" parent="2WAHeVZ7TYDiuwxwndKq-10">
          <mxGeometry width="200" height="27" as="geometry">
            <mxRectangle width="200" height="27" as="alternateBounds" />
          </mxGeometry>
        </mxCell>
        <mxCell id="2WAHeVZ7TYDiuwxwndKq-12" value="" style="shape=tableRow;horizontal=0;startSize=0;swimlaneHead=0;swimlaneBody=0;strokeColor=inherit;top=0;left=0;bottom=0;right=0;collapsible=0;dropTarget=0;fillColor=none;points=[[0,0.5],[1,0.5]];portConstraint=eastwest;fontSize=16;" vertex="1" parent="2WAHeVZ7TYDiuwxwndKq-7">
          <mxGeometry y="56" width="200" height="29" as="geometry" />
        </mxCell>
        <mxCell id="2WAHeVZ7TYDiuwxwndKq-13" value="JobTitle: varchar(225)" style="shape=partialRectangle;html=1;whiteSpace=wrap;connectable=0;strokeColor=inherit;overflow=hidden;fillColor=none;top=0;left=0;bottom=0;right=0;pointerEvents=1;fontSize=12;align=left;spacingLeft=5;" vertex="1" parent="2WAHeVZ7TYDiuwxwndKq-12">
          <mxGeometry width="200" height="29" as="geometry">
            <mxRectangle width="200" height="29" as="alternateBounds" />
          </mxGeometry>
        </mxCell>
        <mxCell id="2WAHeVZ7TYDiuwxwndKq-14" value="PK" style="text;html=1;align=center;verticalAlign=middle;resizable=0;points=[];autosize=1;strokeColor=none;fillColor=none;" vertex="1" parent="2WAHeVZ7TYDiuwxwndKq-1">
          <mxGeometry y="39" width="40" height="30" as="geometry" />
        </mxCell>
        <mxCell id="2WAHeVZ7TYDiuwxwndKq-15" value="FK" style="text;html=1;align=center;verticalAlign=middle;resizable=0;points=[];autosize=1;strokeColor=none;fillColor=none;" vertex="1" parent="2WAHeVZ7TYDiuwxwndKq-1">
          <mxGeometry y="112.5" width="40" height="30" as="geometry" />
        </mxCell>
        <mxCell id="2WAHeVZ7TYDiuwxwndKq-17" value="DepartmentID: int" style="shape=partialRectangle;html=1;whiteSpace=wrap;connectable=0;strokeColor=inherit;overflow=hidden;fillColor=none;top=0;left=0;bottom=0;right=0;pointerEvents=1;fontSize=12;align=left;spacingLeft=5;" vertex="1" parent="2WAHeVZ7TYDiuwxwndKq-1">
          <mxGeometry x="40" y="170" width="210" height="34" as="geometry">
            <mxRectangle width="130" height="34" as="alternateBounds" />
          </mxGeometry>
        </mxCell>
        <mxCell id="2WAHeVZ7TYDiuwxwndKq-19" value="FK" style="text;html=1;align=center;verticalAlign=middle;resizable=0;points=[];autosize=1;strokeColor=none;fillColor=none;" vertex="1" parent="2WAHeVZ7TYDiuwxwndKq-1">
          <mxGeometry y="172" width="40" height="30" as="geometry" />
        </mxCell>
        <mxCell id="IrEHLWDm-gQTKkm_hzSy-1" value="FK" style="text;html=1;align=center;verticalAlign=middle;resizable=0;points=[];autosize=1;strokeColor=none;fillColor=none;" vertex="1" parent="2WAHeVZ7TYDiuwxwndKq-1">
          <mxGeometry y="85" width="40" height="30" as="geometry" />
        </mxCell>
        <mxCell id="IrEHLWDm-gQTKkm_hzSy-2" value="JobLevel" style="swimlane;whiteSpace=wrap;html=1;" vertex="1" parent="1">
          <mxGeometry x="1180" y="1050" width="220" height="160" as="geometry" />
        </mxCell>
        <mxCell id="IrEHLWDm-gQTKkm_hzSy-3" value="" style="line;strokeWidth=2;html=1;" vertex="1" parent="IrEHLWDm-gQTKkm_hzSy-2">
          <mxGeometry y="75" width="220" height="10" as="geometry" />
        </mxCell>
        <mxCell id="IrEHLWDm-gQTKkm_hzSy-4" value="" style="shape=table;startSize=0;container=1;collapsible=0;childLayout=tableLayout;fontSize=11;fillColor=none;strokeColor=none;" vertex="1" parent="IrEHLWDm-gQTKkm_hzSy-2">
          <mxGeometry x="40" y="45" width="100" height="18" as="geometry" />
        </mxCell>
        <mxCell id="IrEHLWDm-gQTKkm_hzSy-5" value="" style="shape=tableRow;horizontal=0;startSize=0;swimlaneHead=0;swimlaneBody=0;strokeColor=inherit;top=0;left=0;bottom=0;right=0;collapsible=0;dropTarget=0;fillColor=none;points=[[0,0.5],[1,0.5]];portConstraint=eastwest;fontSize=16;" vertex="1" parent="IrEHLWDm-gQTKkm_hzSy-4">
          <mxGeometry width="100" height="18" as="geometry" />
        </mxCell>
        <mxCell id="IrEHLWDm-gQTKkm_hzSy-6" value="JobID" style="shape=partialRectangle;html=1;whiteSpace=wrap;connectable=0;strokeColor=inherit;overflow=hidden;fillColor=none;top=0;left=0;bottom=0;right=0;pointerEvents=1;fontSize=12;align=left;spacingLeft=5;" vertex="1" parent="IrEHLWDm-gQTKkm_hzSy-5">
          <mxGeometry width="100" height="18" as="geometry">
            <mxRectangle width="100" height="18" as="alternateBounds" />
          </mxGeometry>
        </mxCell>
        <mxCell id="IrEHLWDm-gQTKkm_hzSy-7" value="" style="line;strokeWidth=2;html=1;rotation=90;" vertex="1" parent="IrEHLWDm-gQTKkm_hzSy-2">
          <mxGeometry x="-24.05" y="88.06" width="128.12" height="10" as="geometry" />
        </mxCell>
        <mxCell id="IrEHLWDm-gQTKkm_hzSy-8" value="" style="shape=table;startSize=0;container=1;collapsible=0;childLayout=tableLayout;fontSize=11;fillColor=none;strokeColor=none;" vertex="1" parent="IrEHLWDm-gQTKkm_hzSy-2">
          <mxGeometry x="40" y="85" width="160" height="55" as="geometry" />
        </mxCell>
        <mxCell id="IrEHLWDm-gQTKkm_hzSy-9" value="" style="shape=tableRow;horizontal=0;startSize=0;swimlaneHead=0;swimlaneBody=0;strokeColor=inherit;top=0;left=0;bottom=0;right=0;collapsible=0;dropTarget=0;fillColor=none;points=[[0,0.5],[1,0.5]];portConstraint=eastwest;fontSize=16;" vertex="1" parent="IrEHLWDm-gQTKkm_hzSy-8">
          <mxGeometry width="160" height="25" as="geometry" />
        </mxCell>
        <mxCell id="IrEHLWDm-gQTKkm_hzSy-10" value="JobTitle: varchar(60)" style="shape=partialRectangle;html=1;whiteSpace=wrap;connectable=0;strokeColor=inherit;overflow=hidden;fillColor=none;top=0;left=0;bottom=0;right=0;pointerEvents=1;fontSize=12;align=left;spacingLeft=5;" vertex="1" parent="IrEHLWDm-gQTKkm_hzSy-9">
          <mxGeometry width="160" height="25" as="geometry">
            <mxRectangle width="160" height="25" as="alternateBounds" />
          </mxGeometry>
        </mxCell>
        <mxCell id="IrEHLWDm-gQTKkm_hzSy-11" value="" style="shape=tableRow;horizontal=0;startSize=0;swimlaneHead=0;swimlaneBody=0;strokeColor=inherit;top=0;left=0;bottom=0;right=0;collapsible=0;dropTarget=0;fillColor=none;points=[[0,0.5],[1,0.5]];portConstraint=eastwest;fontSize=16;" vertex="1" parent="IrEHLWDm-gQTKkm_hzSy-8">
          <mxGeometry y="25" width="160" height="30" as="geometry" />
        </mxCell>
        <mxCell id="IrEHLWDm-gQTKkm_hzSy-12" value="Levels: varchar(20)" style="shape=partialRectangle;html=1;whiteSpace=wrap;connectable=0;strokeColor=inherit;overflow=hidden;fillColor=none;top=0;left=0;bottom=0;right=0;pointerEvents=1;fontSize=12;align=left;spacingLeft=5;" vertex="1" parent="IrEHLWDm-gQTKkm_hzSy-11">
          <mxGeometry width="160" height="30" as="geometry">
            <mxRectangle width="160" height="30" as="alternateBounds" />
          </mxGeometry>
        </mxCell>
        <mxCell id="IrEHLWDm-gQTKkm_hzSy-15" value="PK" style="text;html=1;align=center;verticalAlign=middle;resizable=0;points=[];autosize=1;strokeColor=none;fillColor=none;" vertex="1" parent="IrEHLWDm-gQTKkm_hzSy-2">
          <mxGeometry y="39" width="40" height="30" as="geometry" />
        </mxCell>
        <mxCell id="IrEHLWDm-gQTKkm_hzSy-17" value="Salary" style="swimlane;whiteSpace=wrap;html=1;" vertex="1" parent="1">
          <mxGeometry x="1880" y="280" width="220" height="215" as="geometry" />
        </mxCell>
        <mxCell id="IrEHLWDm-gQTKkm_hzSy-18" value="" style="line;strokeWidth=2;html=1;" vertex="1" parent="IrEHLWDm-gQTKkm_hzSy-17">
          <mxGeometry y="75" width="220" height="10" as="geometry" />
        </mxCell>
        <mxCell id="IrEHLWDm-gQTKkm_hzSy-19" value="" style="shape=table;startSize=0;container=1;collapsible=0;childLayout=tableLayout;fontSize=11;fillColor=none;strokeColor=none;" vertex="1" parent="IrEHLWDm-gQTKkm_hzSy-17">
          <mxGeometry x="40" y="45" width="100" height="18" as="geometry" />
        </mxCell>
        <mxCell id="IrEHLWDm-gQTKkm_hzSy-20" value="" style="shape=tableRow;horizontal=0;startSize=0;swimlaneHead=0;swimlaneBody=0;strokeColor=inherit;top=0;left=0;bottom=0;right=0;collapsible=0;dropTarget=0;fillColor=none;points=[[0,0.5],[1,0.5]];portConstraint=eastwest;fontSize=16;" vertex="1" parent="IrEHLWDm-gQTKkm_hzSy-19">
          <mxGeometry width="100" height="18" as="geometry" />
        </mxCell>
        <mxCell id="IrEHLWDm-gQTKkm_hzSy-21" value="SalaryID" style="shape=partialRectangle;html=1;whiteSpace=wrap;connectable=0;strokeColor=inherit;overflow=hidden;fillColor=none;top=0;left=0;bottom=0;right=0;pointerEvents=1;fontSize=12;align=left;spacingLeft=5;" vertex="1" parent="IrEHLWDm-gQTKkm_hzSy-20">
          <mxGeometry width="100" height="18" as="geometry">
            <mxRectangle width="100" height="18" as="alternateBounds" />
          </mxGeometry>
        </mxCell>
        <mxCell id="IrEHLWDm-gQTKkm_hzSy-22" value="" style="line;strokeWidth=2;html=1;rotation=90;" vertex="1" parent="IrEHLWDm-gQTKkm_hzSy-17">
          <mxGeometry x="-52.74" y="116.75" width="185.49" height="10" as="geometry" />
        </mxCell>
        <mxCell id="IrEHLWDm-gQTKkm_hzSy-23" value="" style="shape=table;startSize=0;container=1;collapsible=0;childLayout=tableLayout;fontSize=11;fillColor=none;strokeColor=none;" vertex="1" parent="IrEHLWDm-gQTKkm_hzSy-17">
          <mxGeometry x="40" y="85" width="160" height="55" as="geometry" />
        </mxCell>
        <mxCell id="IrEHLWDm-gQTKkm_hzSy-24" value="" style="shape=tableRow;horizontal=0;startSize=0;swimlaneHead=0;swimlaneBody=0;strokeColor=inherit;top=0;left=0;bottom=0;right=0;collapsible=0;dropTarget=0;fillColor=none;points=[[0,0.5],[1,0.5]];portConstraint=eastwest;fontSize=16;" vertex="1" parent="IrEHLWDm-gQTKkm_hzSy-23">
          <mxGeometry width="160" height="25" as="geometry" />
        </mxCell>
        <mxCell id="IrEHLWDm-gQTKkm_hzSy-25" value="JobID: varchar(255)" style="shape=partialRectangle;html=1;whiteSpace=wrap;connectable=0;strokeColor=inherit;overflow=hidden;fillColor=none;top=0;left=0;bottom=0;right=0;pointerEvents=1;fontSize=12;align=left;spacingLeft=5;" vertex="1" parent="IrEHLWDm-gQTKkm_hzSy-24">
          <mxGeometry width="160" height="25" as="geometry">
            <mxRectangle width="160" height="25" as="alternateBounds" />
          </mxGeometry>
        </mxCell>
        <mxCell id="IrEHLWDm-gQTKkm_hzSy-26" value="" style="shape=tableRow;horizontal=0;startSize=0;swimlaneHead=0;swimlaneBody=0;strokeColor=inherit;top=0;left=0;bottom=0;right=0;collapsible=0;dropTarget=0;fillColor=none;points=[[0,0.5],[1,0.5]];portConstraint=eastwest;fontSize=16;" vertex="1" parent="IrEHLWDm-gQTKkm_hzSy-23">
          <mxGeometry y="25" width="160" height="30" as="geometry" />
        </mxCell>
        <mxCell id="IrEHLWDm-gQTKkm_hzSy-27" value="AnnualSalary: int" style="shape=partialRectangle;html=1;whiteSpace=wrap;connectable=0;strokeColor=inherit;overflow=hidden;fillColor=none;top=0;left=0;bottom=0;right=0;pointerEvents=1;fontSize=12;align=left;spacingLeft=5;" vertex="1" parent="IrEHLWDm-gQTKkm_hzSy-26">
          <mxGeometry width="160" height="30" as="geometry">
            <mxRectangle width="160" height="30" as="alternateBounds" />
          </mxGeometry>
        </mxCell>
        <mxCell id="IrEHLWDm-gQTKkm_hzSy-28" value="PK" style="text;html=1;align=center;verticalAlign=middle;resizable=0;points=[];autosize=1;strokeColor=none;fillColor=none;" vertex="1" parent="IrEHLWDm-gQTKkm_hzSy-17">
          <mxGeometry y="39" width="40" height="30" as="geometry" />
        </mxCell>
        <mxCell id="IrEHLWDm-gQTKkm_hzSy-29" value="FK" style="text;html=1;align=center;verticalAlign=middle;resizable=0;points=[];autosize=1;strokeColor=none;fillColor=none;" vertex="1" parent="IrEHLWDm-gQTKkm_hzSy-17">
          <mxGeometry y="86.5" width="40" height="30" as="geometry" />
        </mxCell>
        <mxCell id="IrEHLWDm-gQTKkm_hzSy-30" value="TypicalHours: int" style="shape=partialRectangle;html=1;whiteSpace=wrap;connectable=0;strokeColor=inherit;overflow=hidden;fillColor=none;top=0;left=0;bottom=0;right=0;pointerEvents=1;fontSize=12;align=left;spacingLeft=5;" vertex="1" parent="IrEHLWDm-gQTKkm_hzSy-17">
          <mxGeometry x="40" y="140" width="160" height="30" as="geometry">
            <mxRectangle width="160" height="30" as="alternateBounds" />
          </mxGeometry>
        </mxCell>
        <mxCell id="IrEHLWDm-gQTKkm_hzSy-31" value="HourlyWages: int" style="shape=partialRectangle;html=1;whiteSpace=wrap;connectable=0;strokeColor=inherit;overflow=hidden;fillColor=none;top=0;left=0;bottom=0;right=0;pointerEvents=1;fontSize=12;align=left;spacingLeft=5;" vertex="1" parent="IrEHLWDm-gQTKkm_hzSy-17">
          <mxGeometry x="40" y="170" width="160" height="30" as="geometry">
            <mxRectangle width="160" height="30" as="alternateBounds" />
          </mxGeometry>
        </mxCell>
        <mxCell id="bxvURaToYTrSnvhqfkRm-22" style="edgeStyle=orthogonalEdgeStyle;rounded=0;orthogonalLoop=1;jettySize=auto;html=1;entryX=0.044;entryY=0.685;entryDx=0;entryDy=0;entryPerimeter=0;" edge="1" parent="1" target="Pr0mgpjzGMfo_HHlU-Es-29">
          <mxGeometry relative="1" as="geometry">
            <mxPoint x="360" y="330" as="sourcePoint" />
            <Array as="points">
              <mxPoint x="430" y="331" />
              <mxPoint x="430" y="140" />
            </Array>
          </mxGeometry>
        </mxCell>
        <mxCell id="bxvURaToYTrSnvhqfkRm-29" style="edgeStyle=orthogonalEdgeStyle;rounded=0;orthogonalLoop=1;jettySize=auto;html=1;entryX=-0.018;entryY=0.819;entryDx=0;entryDy=0;entryPerimeter=0;" edge="1" parent="1" source="it6m6Rma9egd-yF74jtZ-30" target="FspfbSlliUGgCetE-tHI-19">
          <mxGeometry relative="1" as="geometry">
            <mxPoint x="40" y="520" as="targetPoint" />
            <Array as="points">
              <mxPoint x="30" y="235" />
              <mxPoint x="30" y="510" />
              <mxPoint x="98" y="510" />
            </Array>
          </mxGeometry>
        </mxCell>
        <mxCell id="bxvURaToYTrSnvhqfkRm-34" style="edgeStyle=orthogonalEdgeStyle;rounded=0;orthogonalLoop=1;jettySize=auto;html=1;entryX=0;entryY=0.33;entryDx=0;entryDy=0;entryPerimeter=0;" edge="1" parent="1" source="Pr0mgpjzGMfo_HHlU-Es-183" target="bxvURaToYTrSnvhqfkRm-30">
          <mxGeometry relative="1" as="geometry">
            <mxPoint x="460" y="360" as="targetPoint" />
            <Array as="points">
              <mxPoint x="820" y="224" />
              <mxPoint x="820" y="450" />
              <mxPoint x="440" y="450" />
              <mxPoint x="440" y="353" />
            </Array>
          </mxGeometry>
        </mxCell>
        <mxCell id="FspfbSlliUGgCetE-tHI-9" value="Address" style="swimlane;whiteSpace=wrap;html=1;fillColor=#2975FF;" vertex="1" parent="1">
          <mxGeometry x="97.9500000000001" y="460" width="244.11" height="200" as="geometry" />
        </mxCell>
        <mxCell id="FspfbSlliUGgCetE-tHI-10" value="" style="line;strokeWidth=2;html=1;" vertex="1" parent="FspfbSlliUGgCetE-tHI-9">
          <mxGeometry y="75" width="240" height="10" as="geometry" />
        </mxCell>
        <mxCell id="FspfbSlliUGgCetE-tHI-11" value="" style="shape=table;startSize=0;container=1;collapsible=0;childLayout=tableLayout;fontSize=11;fillColor=none;strokeColor=none;" vertex="1" parent="FspfbSlliUGgCetE-tHI-9">
          <mxGeometry x="40" y="45" width="100" height="18" as="geometry" />
        </mxCell>
        <mxCell id="FspfbSlliUGgCetE-tHI-12" value="" style="shape=tableRow;horizontal=0;startSize=0;swimlaneHead=0;swimlaneBody=0;strokeColor=inherit;top=0;left=0;bottom=0;right=0;collapsible=0;dropTarget=0;fillColor=none;points=[[0,0.5],[1,0.5]];portConstraint=eastwest;fontSize=16;" vertex="1" parent="FspfbSlliUGgCetE-tHI-11">
          <mxGeometry width="100" height="18" as="geometry" />
        </mxCell>
        <mxCell id="FspfbSlliUGgCetE-tHI-13" value="AddressID" style="shape=partialRectangle;html=1;whiteSpace=wrap;connectable=0;strokeColor=inherit;overflow=hidden;fillColor=none;top=0;left=0;bottom=0;right=0;pointerEvents=1;fontSize=12;align=left;spacingLeft=5;" vertex="1" parent="FspfbSlliUGgCetE-tHI-12">
          <mxGeometry width="100" height="18" as="geometry">
            <mxRectangle width="100" height="18" as="alternateBounds" />
          </mxGeometry>
        </mxCell>
        <mxCell id="FspfbSlliUGgCetE-tHI-14" value="" style="line;strokeWidth=2;html=1;rotation=90;" vertex="1" parent="FspfbSlliUGgCetE-tHI-9">
          <mxGeometry x="-48.27" y="107.14" width="176.53" height="10" as="geometry" />
        </mxCell>
        <mxCell id="FspfbSlliUGgCetE-tHI-15" value="" style="shape=table;startSize=0;container=1;collapsible=0;childLayout=tableLayout;fontSize=11;fillColor=none;strokeColor=none;" vertex="1" parent="FspfbSlliUGgCetE-tHI-9">
          <mxGeometry x="41" y="85" width="199" height="28" as="geometry" />
        </mxCell>
        <mxCell id="FspfbSlliUGgCetE-tHI-16" value="" style="shape=tableRow;horizontal=0;startSize=0;swimlaneHead=0;swimlaneBody=0;strokeColor=inherit;top=0;left=0;bottom=0;right=0;collapsible=0;dropTarget=0;fillColor=none;points=[[0,0.5],[1,0.5]];portConstraint=eastwest;fontSize=16;" vertex="1" parent="FspfbSlliUGgCetE-tHI-15">
          <mxGeometry width="199" height="28" as="geometry" />
        </mxCell>
        <mxCell id="FspfbSlliUGgCetE-tHI-17" value="Address: nvarchar(255)" style="shape=partialRectangle;html=1;whiteSpace=wrap;connectable=0;strokeColor=inherit;overflow=hidden;fillColor=none;top=0;left=0;bottom=0;right=0;pointerEvents=1;fontSize=12;align=left;spacingLeft=5;" vertex="1" parent="FspfbSlliUGgCetE-tHI-16">
          <mxGeometry width="199" height="28" as="geometry">
            <mxRectangle width="199" height="28" as="alternateBounds" />
          </mxGeometry>
        </mxCell>
        <mxCell id="FspfbSlliUGgCetE-tHI-18" value="FK" style="text;html=1;align=center;verticalAlign=middle;resizable=0;points=[];autosize=1;strokeColor=none;fillColor=none;" vertex="1" parent="FspfbSlliUGgCetE-tHI-9">
          <mxGeometry x="1" y="113" width="40" height="30" as="geometry" />
        </mxCell>
        <mxCell id="FspfbSlliUGgCetE-tHI-19" value="PK" style="text;html=1;align=center;verticalAlign=middle;resizable=0;points=[];autosize=1;strokeColor=none;fillColor=none;" vertex="1" parent="FspfbSlliUGgCetE-tHI-9">
          <mxGeometry x="1" y="39" width="40" height="30" as="geometry" />
        </mxCell>
        <mxCell id="FspfbSlliUGgCetE-tHI-20" value="CityID:int" style="shape=partialRectangle;html=1;whiteSpace=wrap;connectable=0;strokeColor=inherit;overflow=hidden;fillColor=none;top=0;left=0;bottom=0;right=0;pointerEvents=1;fontSize=12;align=left;spacingLeft=5;" vertex="1" parent="FspfbSlliUGgCetE-tHI-9">
          <mxGeometry x="40" y="114" width="199" height="28" as="geometry">
            <mxRectangle width="199" height="28" as="alternateBounds" />
          </mxGeometry>
        </mxCell>
        <mxCell id="FspfbSlliUGgCetE-tHI-21" value="ZipCodeID:int" style="shape=partialRectangle;html=1;whiteSpace=wrap;connectable=0;strokeColor=inherit;overflow=hidden;fillColor=none;top=0;left=0;bottom=0;right=0;pointerEvents=1;fontSize=12;align=left;spacingLeft=5;" vertex="1" parent="FspfbSlliUGgCetE-tHI-9">
          <mxGeometry x="40" y="143" width="199" height="28" as="geometry">
            <mxRectangle width="199" height="28" as="alternateBounds" />
          </mxGeometry>
        </mxCell>
        <mxCell id="FspfbSlliUGgCetE-tHI-22" value="StateID:int" style="shape=partialRectangle;html=1;whiteSpace=wrap;connectable=0;strokeColor=inherit;overflow=hidden;fillColor=none;top=0;left=0;bottom=0;right=0;pointerEvents=1;fontSize=12;align=left;spacingLeft=5;" vertex="1" parent="FspfbSlliUGgCetE-tHI-9">
          <mxGeometry x="40" y="171" width="199" height="28" as="geometry">
            <mxRectangle width="199" height="28" as="alternateBounds" />
          </mxGeometry>
        </mxCell>
        <mxCell id="FspfbSlliUGgCetE-tHI-24" value="FK" style="text;html=1;align=center;verticalAlign=middle;resizable=0;points=[];autosize=1;strokeColor=none;fillColor=none;" vertex="1" parent="FspfbSlliUGgCetE-tHI-9">
          <mxGeometry x="1" y="169" width="40" height="30" as="geometry" />
        </mxCell>
        <mxCell id="FspfbSlliUGgCetE-tHI-23" value="FK" style="text;html=1;align=center;verticalAlign=middle;resizable=0;points=[];autosize=1;strokeColor=none;fillColor=none;" vertex="1" parent="FspfbSlliUGgCetE-tHI-9">
          <mxGeometry y="143" width="40" height="30" as="geometry" />
        </mxCell>
        <mxCell id="bxvURaToYTrSnvhqfkRm-35" style="edgeStyle=orthogonalEdgeStyle;rounded=0;orthogonalLoop=1;jettySize=auto;html=1;entryX=0.082;entryY=0.726;entryDx=0;entryDy=0;entryPerimeter=0;" edge="1" parent="1" source="it6m6Rma9egd-yF74jtZ-41" target="Pr0mgpjzGMfo_HHlU-Es-203">
          <mxGeometry relative="1" as="geometry">
            <Array as="points">
              <mxPoint x="860" y="298" />
              <mxPoint x="860" y="546" />
            </Array>
          </mxGeometry>
        </mxCell>
        <mxCell id="bxvURaToYTrSnvhqfkRm-37" style="edgeStyle=orthogonalEdgeStyle;rounded=0;orthogonalLoop=1;jettySize=auto;html=1;entryX=-0.056;entryY=0.448;entryDx=0;entryDy=0;entryPerimeter=0;" edge="1" parent="1" source="IrEHLWDm-gQTKkm_hzSy-1" target="it6m6Rma9egd-yF74jtZ-29">
          <mxGeometry relative="1" as="geometry">
            <mxPoint x="30" y="130" as="targetPoint" />
            <Array as="points">
              <mxPoint y="860" />
              <mxPoint y="132" />
            </Array>
          </mxGeometry>
        </mxCell>
        <mxCell id="bxvURaToYTrSnvhqfkRm-40" style="edgeStyle=orthogonalEdgeStyle;rounded=0;orthogonalLoop=1;jettySize=auto;html=1;" edge="1" parent="1">
          <mxGeometry relative="1" as="geometry">
            <mxPoint x="370" y="120" as="targetPoint" />
            <mxPoint x="360" y="850" as="sourcePoint" />
            <Array as="points">
              <mxPoint x="390" y="851" />
              <mxPoint x="390" y="120" />
            </Array>
          </mxGeometry>
        </mxCell>
        <mxCell id="bxvURaToYTrSnvhqfkRm-42" style="edgeStyle=orthogonalEdgeStyle;rounded=0;orthogonalLoop=1;jettySize=auto;html=1;entryX=-0.028;entryY=0.152;entryDx=0;entryDy=0;entryPerimeter=0;" edge="1" parent="1" source="2WAHeVZ7TYDiuwxwndKq-15" target="Pr0mgpjzGMfo_HHlU-Es-29">
          <mxGeometry relative="1" as="geometry">
            <Array as="points">
              <mxPoint x="50" y="887" />
              <mxPoint x="50" y="690" />
              <mxPoint x="460" y="690" />
              <mxPoint x="460" y="124" />
            </Array>
          </mxGeometry>
        </mxCell>
      </root>
    </mxGraphModel>
  </diagram>
  <diagram id="7zeuiQWROkWUS5iE5Wxv" name="Interview">
    <mxGraphModel dx="1584" dy="828" grid="1" gridSize="10" guides="1" tooltips="1" connect="1" arrows="1" fold="1" page="1" pageScale="1" pageWidth="850" pageHeight="1100" math="0" shadow="0">
      <root>
        <mxCell id="0" />
        <mxCell id="1" parent="0" />
        <mxCell id="BlR_-Cc2C6Ki35VEyRO9-1" value="Interviewers" style="swimlane;whiteSpace=wrap;html=1;fillColor=#2975FF;strokeColor=#3F32FF;" parent="1" vertex="1">
          <mxGeometry x="70" y="330" width="250" height="240" as="geometry" />
        </mxCell>
        <mxCell id="BlR_-Cc2C6Ki35VEyRO9-2" value="" style="line;strokeWidth=2;html=1;" parent="BlR_-Cc2C6Ki35VEyRO9-1" vertex="1">
          <mxGeometry y="69" width="250" height="10" as="geometry" />
        </mxCell>
        <mxCell id="BlR_-Cc2C6Ki35VEyRO9-3" value="" style="shape=table;startSize=0;container=1;collapsible=0;childLayout=tableLayout;fontSize=11;fillColor=none;strokeColor=none;" parent="BlR_-Cc2C6Ki35VEyRO9-1" vertex="1">
          <mxGeometry x="40" y="45" width="100" height="18" as="geometry" />
        </mxCell>
        <mxCell id="BlR_-Cc2C6Ki35VEyRO9-4" value="" style="shape=tableRow;horizontal=0;startSize=0;swimlaneHead=0;swimlaneBody=0;strokeColor=inherit;top=0;left=0;bottom=0;right=0;collapsible=0;dropTarget=0;fillColor=none;points=[[0,0.5],[1,0.5]];portConstraint=eastwest;fontSize=16;" parent="BlR_-Cc2C6Ki35VEyRO9-3" vertex="1">
          <mxGeometry width="100" height="18" as="geometry" />
        </mxCell>
        <mxCell id="BlR_-Cc2C6Ki35VEyRO9-5" value="InterviewerID" style="shape=partialRectangle;html=1;whiteSpace=wrap;connectable=0;strokeColor=inherit;overflow=hidden;fillColor=none;top=0;left=0;bottom=0;right=0;pointerEvents=1;fontSize=12;align=left;spacingLeft=5;" parent="BlR_-Cc2C6Ki35VEyRO9-4" vertex="1">
          <mxGeometry width="100" height="18" as="geometry">
            <mxRectangle width="100" height="18" as="alternateBounds" />
          </mxGeometry>
        </mxCell>
        <mxCell id="BlR_-Cc2C6Ki35VEyRO9-6" value="" style="line;strokeWidth=2;html=1;rotation=90;" parent="BlR_-Cc2C6Ki35VEyRO9-1" vertex="1">
          <mxGeometry x="-66.25" y="130.25" width="212.5" height="10" as="geometry" />
        </mxCell>
        <mxCell id="BlR_-Cc2C6Ki35VEyRO9-7" value="" style="shape=table;startSize=0;container=1;collapsible=0;childLayout=tableLayout;fontSize=11;fillColor=none;strokeColor=none;" parent="BlR_-Cc2C6Ki35VEyRO9-1" vertex="1">
          <mxGeometry x="40" y="85" width="200" height="105" as="geometry" />
        </mxCell>
        <mxCell id="BlR_-Cc2C6Ki35VEyRO9-8" value="" style="shape=tableRow;horizontal=0;startSize=0;swimlaneHead=0;swimlaneBody=0;strokeColor=inherit;top=0;left=0;bottom=0;right=0;collapsible=0;dropTarget=0;fillColor=none;points=[[0,0.5],[1,0.5]];portConstraint=eastwest;fontSize=16;" parent="BlR_-Cc2C6Ki35VEyRO9-7" vertex="1">
          <mxGeometry width="200" height="37" as="geometry" />
        </mxCell>
        <mxCell id="BlR_-Cc2C6Ki35VEyRO9-9" value="Interviewer_FName:varchar(255)" style="shape=partialRectangle;html=1;whiteSpace=wrap;connectable=0;strokeColor=inherit;overflow=hidden;fillColor=none;top=0;left=0;bottom=0;right=0;pointerEvents=1;fontSize=12;align=left;spacingLeft=5;" parent="BlR_-Cc2C6Ki35VEyRO9-8" vertex="1">
          <mxGeometry width="200" height="37" as="geometry">
            <mxRectangle width="200" height="37" as="alternateBounds" />
          </mxGeometry>
        </mxCell>
        <mxCell id="BlR_-Cc2C6Ki35VEyRO9-10" value="" style="shape=tableRow;horizontal=0;startSize=0;swimlaneHead=0;swimlaneBody=0;strokeColor=inherit;top=0;left=0;bottom=0;right=0;collapsible=0;dropTarget=0;fillColor=none;points=[[0,0.5],[1,0.5]];portConstraint=eastwest;fontSize=16;" parent="BlR_-Cc2C6Ki35VEyRO9-7" vertex="1">
          <mxGeometry y="37" width="200" height="31" as="geometry" />
        </mxCell>
        <mxCell id="BlR_-Cc2C6Ki35VEyRO9-11" value="Interviewer_LName:varchar(20)" style="shape=partialRectangle;html=1;whiteSpace=wrap;connectable=0;strokeColor=inherit;overflow=hidden;fillColor=none;top=0;left=0;bottom=0;right=0;pointerEvents=1;fontSize=12;align=left;spacingLeft=5;" parent="BlR_-Cc2C6Ki35VEyRO9-10" vertex="1">
          <mxGeometry width="200" height="31" as="geometry">
            <mxRectangle width="200" height="31" as="alternateBounds" />
          </mxGeometry>
        </mxCell>
        <mxCell id="BlR_-Cc2C6Ki35VEyRO9-12" value="" style="shape=tableRow;horizontal=0;startSize=0;swimlaneHead=0;swimlaneBody=0;strokeColor=inherit;top=0;left=0;bottom=0;right=0;collapsible=0;dropTarget=0;fillColor=none;points=[[0,0.5],[1,0.5]];portConstraint=eastwest;fontSize=16;" parent="BlR_-Cc2C6Ki35VEyRO9-7" vertex="1">
          <mxGeometry y="68" width="200" height="37" as="geometry" />
        </mxCell>
        <mxCell id="BlR_-Cc2C6Ki35VEyRO9-13" value="DepartmentID:int" style="shape=partialRectangle;html=1;whiteSpace=wrap;connectable=0;strokeColor=inherit;overflow=hidden;fillColor=none;top=0;left=0;bottom=0;right=0;pointerEvents=1;fontSize=12;align=left;spacingLeft=5;" parent="BlR_-Cc2C6Ki35VEyRO9-12" vertex="1">
          <mxGeometry width="200" height="37" as="geometry">
            <mxRectangle width="200" height="37" as="alternateBounds" />
          </mxGeometry>
        </mxCell>
        <mxCell id="BlR_-Cc2C6Ki35VEyRO9-14" value="PK" style="text;html=1;align=center;verticalAlign=middle;resizable=0;points=[];autosize=1;strokeColor=none;fillColor=none;" parent="BlR_-Cc2C6Ki35VEyRO9-1" vertex="1">
          <mxGeometry y="39" width="40" height="30" as="geometry" />
        </mxCell>
        <mxCell id="BlR_-Cc2C6Ki35VEyRO9-15" value="FK" style="text;html=1;align=center;verticalAlign=middle;resizable=0;points=[];autosize=1;strokeColor=none;fillColor=none;" parent="BlR_-Cc2C6Ki35VEyRO9-1" vertex="1">
          <mxGeometry y="156" width="40" height="30" as="geometry" />
        </mxCell>
        <mxCell id="BlR_-Cc2C6Ki35VEyRO9-32" value="JobTitle: varchar(255)" style="shape=partialRectangle;html=1;whiteSpace=wrap;connectable=0;strokeColor=inherit;overflow=hidden;fillColor=none;top=0;left=0;bottom=0;right=0;pointerEvents=1;fontSize=12;align=left;spacingLeft=5;" parent="BlR_-Cc2C6Ki35VEyRO9-1" vertex="1">
          <mxGeometry x="40" y="186" width="200" height="34" as="geometry">
            <mxRectangle width="200" height="34" as="alternateBounds" />
          </mxGeometry>
        </mxCell>
        <mxCell id="BlR_-Cc2C6Ki35VEyRO9-31" value="" style="shape=tableRow;horizontal=0;startSize=0;swimlaneHead=0;swimlaneBody=0;strokeColor=inherit;top=0;left=0;bottom=0;right=0;collapsible=0;dropTarget=0;fillColor=none;points=[[0,0.5],[1,0.5]];portConstraint=eastwest;fontSize=16;" parent="1" vertex="1">
          <mxGeometry x="110" y="500" width="200" height="34" as="geometry" />
        </mxCell>
        <mxCell id="emBT44CqDS9zkWayU1Rp-1" value="Test" style="swimlane;whiteSpace=wrap;html=1;fillColor=#2975FF;strokeColor=#5C81B8;" vertex="1" parent="1">
          <mxGeometry x="440" y="56" width="230" height="223" as="geometry" />
        </mxCell>
        <mxCell id="emBT44CqDS9zkWayU1Rp-2" value="" style="line;strokeWidth=2;html=1;" vertex="1" parent="emBT44CqDS9zkWayU1Rp-1">
          <mxGeometry y="69" width="230" height="10" as="geometry" />
        </mxCell>
        <mxCell id="emBT44CqDS9zkWayU1Rp-3" value="" style="shape=table;startSize=0;container=1;collapsible=0;childLayout=tableLayout;fontSize=11;fillColor=none;strokeColor=none;" vertex="1" parent="emBT44CqDS9zkWayU1Rp-1">
          <mxGeometry x="40" y="45" width="100" height="18" as="geometry" />
        </mxCell>
        <mxCell id="emBT44CqDS9zkWayU1Rp-4" value="" style="shape=tableRow;horizontal=0;startSize=0;swimlaneHead=0;swimlaneBody=0;strokeColor=inherit;top=0;left=0;bottom=0;right=0;collapsible=0;dropTarget=0;fillColor=none;points=[[0,0.5],[1,0.5]];portConstraint=eastwest;fontSize=16;" vertex="1" parent="emBT44CqDS9zkWayU1Rp-3">
          <mxGeometry width="100" height="18" as="geometry" />
        </mxCell>
        <mxCell id="emBT44CqDS9zkWayU1Rp-5" value="CandidateID" style="shape=partialRectangle;html=1;whiteSpace=wrap;connectable=0;strokeColor=inherit;overflow=hidden;fillColor=none;top=0;left=0;bottom=0;right=0;pointerEvents=1;fontSize=12;align=left;spacingLeft=5;" vertex="1" parent="emBT44CqDS9zkWayU1Rp-4">
          <mxGeometry width="100" height="18" as="geometry">
            <mxRectangle width="100" height="18" as="alternateBounds" />
          </mxGeometry>
        </mxCell>
        <mxCell id="emBT44CqDS9zkWayU1Rp-6" value="" style="line;strokeWidth=2;html=1;rotation=90;" vertex="1" parent="emBT44CqDS9zkWayU1Rp-1">
          <mxGeometry x="-55.62" y="119.63" width="191.25" height="10" as="geometry" />
        </mxCell>
        <mxCell id="emBT44CqDS9zkWayU1Rp-7" value="" style="shape=table;startSize=0;container=1;collapsible=0;childLayout=tableLayout;fontSize=11;fillColor=none;strokeColor=none;" vertex="1" parent="emBT44CqDS9zkWayU1Rp-1">
          <mxGeometry x="40" y="85" width="190" height="99" as="geometry" />
        </mxCell>
        <mxCell id="emBT44CqDS9zkWayU1Rp-8" value="" style="shape=tableRow;horizontal=0;startSize=0;swimlaneHead=0;swimlaneBody=0;strokeColor=inherit;top=0;left=0;bottom=0;right=0;collapsible=0;dropTarget=0;fillColor=none;points=[[0,0.5],[1,0.5]];portConstraint=eastwest;fontSize=16;" vertex="1" parent="emBT44CqDS9zkWayU1Rp-7">
          <mxGeometry width="190" height="34" as="geometry" />
        </mxCell>
        <mxCell id="emBT44CqDS9zkWayU1Rp-9" value="DepartmentID: int" style="shape=partialRectangle;html=1;whiteSpace=wrap;connectable=0;strokeColor=inherit;overflow=hidden;fillColor=none;top=0;left=0;bottom=0;right=0;pointerEvents=1;fontSize=12;align=left;spacingLeft=5;" vertex="1" parent="emBT44CqDS9zkWayU1Rp-8">
          <mxGeometry width="190" height="34" as="geometry">
            <mxRectangle width="190" height="34" as="alternateBounds" />
          </mxGeometry>
        </mxCell>
        <mxCell id="emBT44CqDS9zkWayU1Rp-10" value="" style="shape=tableRow;horizontal=0;startSize=0;swimlaneHead=0;swimlaneBody=0;strokeColor=inherit;top=0;left=0;bottom=0;right=0;collapsible=0;dropTarget=0;fillColor=none;points=[[0,0.5],[1,0.5]];portConstraint=eastwest;fontSize=16;" vertex="1" parent="emBT44CqDS9zkWayU1Rp-7">
          <mxGeometry y="34" width="190" height="31" as="geometry" />
        </mxCell>
        <mxCell id="emBT44CqDS9zkWayU1Rp-11" value="Score: int" style="shape=partialRectangle;html=1;whiteSpace=wrap;connectable=0;strokeColor=inherit;overflow=hidden;fillColor=none;top=0;left=0;bottom=0;right=0;pointerEvents=1;fontSize=12;align=left;spacingLeft=5;" vertex="1" parent="emBT44CqDS9zkWayU1Rp-10">
          <mxGeometry width="190" height="31" as="geometry">
            <mxRectangle width="190" height="31" as="alternateBounds" />
          </mxGeometry>
        </mxCell>
        <mxCell id="emBT44CqDS9zkWayU1Rp-12" value="" style="shape=tableRow;horizontal=0;startSize=0;swimlaneHead=0;swimlaneBody=0;strokeColor=inherit;top=0;left=0;bottom=0;right=0;collapsible=0;dropTarget=0;fillColor=none;points=[[0,0.5],[1,0.5]];portConstraint=eastwest;fontSize=16;" vertex="1" parent="emBT44CqDS9zkWayU1Rp-7">
          <mxGeometry y="65" width="190" height="34" as="geometry" />
        </mxCell>
        <mxCell id="emBT44CqDS9zkWayU1Rp-13" value="LocationID:int" style="shape=partialRectangle;html=1;whiteSpace=wrap;connectable=0;strokeColor=inherit;overflow=hidden;fillColor=none;top=0;left=0;bottom=0;right=0;pointerEvents=1;fontSize=12;align=left;spacingLeft=5;" vertex="1" parent="emBT44CqDS9zkWayU1Rp-12">
          <mxGeometry width="190" height="34" as="geometry">
            <mxRectangle width="190" height="34" as="alternateBounds" />
          </mxGeometry>
        </mxCell>
        <mxCell id="emBT44CqDS9zkWayU1Rp-14" value="PK" style="text;html=1;align=center;verticalAlign=middle;resizable=0;points=[];autosize=1;strokeColor=none;fillColor=none;" vertex="1" parent="emBT44CqDS9zkWayU1Rp-1">
          <mxGeometry y="39" width="40" height="30" as="geometry" />
        </mxCell>
        <mxCell id="emBT44CqDS9zkWayU1Rp-15" value="FK" style="text;html=1;align=center;verticalAlign=middle;resizable=0;points=[];autosize=1;strokeColor=none;fillColor=none;" vertex="1" parent="emBT44CqDS9zkWayU1Rp-1">
          <mxGeometry y="154" width="40" height="30" as="geometry" />
        </mxCell>
        <mxCell id="emBT44CqDS9zkWayU1Rp-17" value="TestType: varchar(255)" style="shape=partialRectangle;html=1;whiteSpace=wrap;connectable=0;strokeColor=inherit;overflow=hidden;fillColor=none;top=0;left=0;bottom=0;right=0;pointerEvents=1;fontSize=12;align=left;spacingLeft=5;" vertex="1" parent="emBT44CqDS9zkWayU1Rp-1">
          <mxGeometry x="40" y="179" width="190" height="34" as="geometry">
            <mxRectangle width="190" height="34" as="alternateBounds" />
          </mxGeometry>
        </mxCell>
        <mxCell id="emBT44CqDS9zkWayU1Rp-16" value="" style="shape=tableRow;horizontal=0;startSize=0;swimlaneHead=0;swimlaneBody=0;strokeColor=inherit;top=0;left=0;bottom=0;right=0;collapsible=0;dropTarget=0;fillColor=none;points=[[0,0.5],[1,0.5]];portConstraint=eastwest;fontSize=16;" vertex="1" parent="1">
          <mxGeometry x="370" y="279" width="190" height="34" as="geometry" />
        </mxCell>
        <mxCell id="emBT44CqDS9zkWayU1Rp-18" value="Interview" style="swimlane;whiteSpace=wrap;html=1;fillColor=#2975FF;strokeColor=#3F32FF;" vertex="1" parent="1">
          <mxGeometry x="380" y="360" width="250" height="240" as="geometry" />
        </mxCell>
        <mxCell id="emBT44CqDS9zkWayU1Rp-19" value="" style="line;strokeWidth=2;html=1;" vertex="1" parent="emBT44CqDS9zkWayU1Rp-18">
          <mxGeometry y="69" width="250" height="10" as="geometry" />
        </mxCell>
        <mxCell id="emBT44CqDS9zkWayU1Rp-20" value="" style="shape=table;startSize=0;container=1;collapsible=0;childLayout=tableLayout;fontSize=11;fillColor=none;strokeColor=none;" vertex="1" parent="emBT44CqDS9zkWayU1Rp-18">
          <mxGeometry x="40" y="45" width="100" height="18" as="geometry" />
        </mxCell>
        <mxCell id="emBT44CqDS9zkWayU1Rp-21" value="" style="shape=tableRow;horizontal=0;startSize=0;swimlaneHead=0;swimlaneBody=0;strokeColor=inherit;top=0;left=0;bottom=0;right=0;collapsible=0;dropTarget=0;fillColor=none;points=[[0,0.5],[1,0.5]];portConstraint=eastwest;fontSize=16;" vertex="1" parent="emBT44CqDS9zkWayU1Rp-20">
          <mxGeometry width="100" height="18" as="geometry" />
        </mxCell>
        <mxCell id="emBT44CqDS9zkWayU1Rp-22" value="InterviewerID" style="shape=partialRectangle;html=1;whiteSpace=wrap;connectable=0;strokeColor=inherit;overflow=hidden;fillColor=none;top=0;left=0;bottom=0;right=0;pointerEvents=1;fontSize=12;align=left;spacingLeft=5;" vertex="1" parent="emBT44CqDS9zkWayU1Rp-21">
          <mxGeometry width="100" height="18" as="geometry">
            <mxRectangle width="100" height="18" as="alternateBounds" />
          </mxGeometry>
        </mxCell>
        <mxCell id="emBT44CqDS9zkWayU1Rp-23" value="" style="line;strokeWidth=2;html=1;rotation=90;" vertex="1" parent="emBT44CqDS9zkWayU1Rp-18">
          <mxGeometry x="-66.25" y="130.25" width="212.5" height="10" as="geometry" />
        </mxCell>
        <mxCell id="emBT44CqDS9zkWayU1Rp-24" value="" style="shape=table;startSize=0;container=1;collapsible=0;childLayout=tableLayout;fontSize=11;fillColor=none;strokeColor=none;" vertex="1" parent="emBT44CqDS9zkWayU1Rp-18">
          <mxGeometry x="40" y="85" width="200" height="105" as="geometry" />
        </mxCell>
        <mxCell id="emBT44CqDS9zkWayU1Rp-25" value="" style="shape=tableRow;horizontal=0;startSize=0;swimlaneHead=0;swimlaneBody=0;strokeColor=inherit;top=0;left=0;bottom=0;right=0;collapsible=0;dropTarget=0;fillColor=none;points=[[0,0.5],[1,0.5]];portConstraint=eastwest;fontSize=16;" vertex="1" parent="emBT44CqDS9zkWayU1Rp-24">
          <mxGeometry width="200" height="37" as="geometry" />
        </mxCell>
        <mxCell id="emBT44CqDS9zkWayU1Rp-26" value="StartTime: time" style="shape=partialRectangle;html=1;whiteSpace=wrap;connectable=0;strokeColor=inherit;overflow=hidden;fillColor=none;top=0;left=0;bottom=0;right=0;pointerEvents=1;fontSize=12;align=left;spacingLeft=5;" vertex="1" parent="emBT44CqDS9zkWayU1Rp-25">
          <mxGeometry width="200" height="37" as="geometry">
            <mxRectangle width="200" height="37" as="alternateBounds" />
          </mxGeometry>
        </mxCell>
        <mxCell id="emBT44CqDS9zkWayU1Rp-27" value="" style="shape=tableRow;horizontal=0;startSize=0;swimlaneHead=0;swimlaneBody=0;strokeColor=inherit;top=0;left=0;bottom=0;right=0;collapsible=0;dropTarget=0;fillColor=none;points=[[0,0.5],[1,0.5]];portConstraint=eastwest;fontSize=16;" vertex="1" parent="emBT44CqDS9zkWayU1Rp-24">
          <mxGeometry y="37" width="200" height="31" as="geometry" />
        </mxCell>
        <mxCell id="emBT44CqDS9zkWayU1Rp-28" value="EndTime: time" style="shape=partialRectangle;html=1;whiteSpace=wrap;connectable=0;strokeColor=inherit;overflow=hidden;fillColor=none;top=0;left=0;bottom=0;right=0;pointerEvents=1;fontSize=12;align=left;spacingLeft=5;" vertex="1" parent="emBT44CqDS9zkWayU1Rp-27">
          <mxGeometry width="200" height="31" as="geometry">
            <mxRectangle width="200" height="31" as="alternateBounds" />
          </mxGeometry>
        </mxCell>
        <mxCell id="emBT44CqDS9zkWayU1Rp-29" value="" style="shape=tableRow;horizontal=0;startSize=0;swimlaneHead=0;swimlaneBody=0;strokeColor=inherit;top=0;left=0;bottom=0;right=0;collapsible=0;dropTarget=0;fillColor=none;points=[[0,0.5],[1,0.5]];portConstraint=eastwest;fontSize=16;" vertex="1" parent="emBT44CqDS9zkWayU1Rp-24">
          <mxGeometry y="68" width="200" height="37" as="geometry" />
        </mxCell>
        <mxCell id="emBT44CqDS9zkWayU1Rp-30" value="DepartmentID:int" style="shape=partialRectangle;html=1;whiteSpace=wrap;connectable=0;strokeColor=inherit;overflow=hidden;fillColor=none;top=0;left=0;bottom=0;right=0;pointerEvents=1;fontSize=12;align=left;spacingLeft=5;" vertex="1" parent="emBT44CqDS9zkWayU1Rp-29">
          <mxGeometry width="200" height="37" as="geometry">
            <mxRectangle width="200" height="37" as="alternateBounds" />
          </mxGeometry>
        </mxCell>
        <mxCell id="emBT44CqDS9zkWayU1Rp-31" value="PK" style="text;html=1;align=center;verticalAlign=middle;resizable=0;points=[];autosize=1;strokeColor=none;fillColor=none;" vertex="1" parent="emBT44CqDS9zkWayU1Rp-18">
          <mxGeometry y="39" width="40" height="30" as="geometry" />
        </mxCell>
        <mxCell id="emBT44CqDS9zkWayU1Rp-32" value="FK" style="text;html=1;align=center;verticalAlign=middle;resizable=0;points=[];autosize=1;strokeColor=none;fillColor=none;" vertex="1" parent="emBT44CqDS9zkWayU1Rp-18">
          <mxGeometry y="156" width="40" height="30" as="geometry" />
        </mxCell>
        <mxCell id="emBT44CqDS9zkWayU1Rp-33" value="Date: date" style="shape=partialRectangle;html=1;whiteSpace=wrap;connectable=0;strokeColor=inherit;overflow=hidden;fillColor=none;top=0;left=0;bottom=0;right=0;pointerEvents=1;fontSize=12;align=left;spacingLeft=5;" vertex="1" parent="emBT44CqDS9zkWayU1Rp-18">
          <mxGeometry x="40" y="186" width="200" height="34" as="geometry">
            <mxRectangle width="200" height="34" as="alternateBounds" />
          </mxGeometry>
        </mxCell>
        <mxCell id="_K6qsM1CxrZbafqOVtYa-1" value="Status" style="swimlane;whiteSpace=wrap;html=1;fillColor=#2975FF;strokeColor=#3F32FF;" vertex="1" parent="1">
          <mxGeometry x="90" y="610" width="230" height="210" as="geometry" />
        </mxCell>
        <mxCell id="_K6qsM1CxrZbafqOVtYa-2" value="" style="line;strokeWidth=2;html=1;" vertex="1" parent="_K6qsM1CxrZbafqOVtYa-1">
          <mxGeometry y="69" width="230" height="10" as="geometry" />
        </mxCell>
        <mxCell id="_K6qsM1CxrZbafqOVtYa-3" value="" style="shape=table;startSize=0;container=1;collapsible=0;childLayout=tableLayout;fontSize=11;fillColor=none;strokeColor=none;" vertex="1" parent="_K6qsM1CxrZbafqOVtYa-1">
          <mxGeometry x="40" y="45" width="100" height="18" as="geometry" />
        </mxCell>
        <mxCell id="_K6qsM1CxrZbafqOVtYa-4" value="" style="shape=tableRow;horizontal=0;startSize=0;swimlaneHead=0;swimlaneBody=0;strokeColor=inherit;top=0;left=0;bottom=0;right=0;collapsible=0;dropTarget=0;fillColor=none;points=[[0,0.5],[1,0.5]];portConstraint=eastwest;fontSize=16;" vertex="1" parent="_K6qsM1CxrZbafqOVtYa-3">
          <mxGeometry width="100" height="18" as="geometry" />
        </mxCell>
        <mxCell id="_K6qsM1CxrZbafqOVtYa-5" value="StatusID" style="shape=partialRectangle;html=1;whiteSpace=wrap;connectable=0;strokeColor=inherit;overflow=hidden;fillColor=none;top=0;left=0;bottom=0;right=0;pointerEvents=1;fontSize=12;align=left;spacingLeft=5;" vertex="1" parent="_K6qsM1CxrZbafqOVtYa-4">
          <mxGeometry width="100" height="18" as="geometry">
            <mxRectangle width="100" height="18" as="alternateBounds" />
          </mxGeometry>
        </mxCell>
        <mxCell id="_K6qsM1CxrZbafqOVtYa-6" value="" style="line;strokeWidth=2;html=1;rotation=90;" vertex="1" parent="_K6qsM1CxrZbafqOVtYa-1">
          <mxGeometry x="-51.25" y="115.25" width="182.5" height="10" as="geometry" />
        </mxCell>
        <mxCell id="_K6qsM1CxrZbafqOVtYa-7" value="" style="shape=table;startSize=0;container=1;collapsible=0;childLayout=tableLayout;fontSize=11;fillColor=none;strokeColor=none;" vertex="1" parent="_K6qsM1CxrZbafqOVtYa-1">
          <mxGeometry x="40" y="85" width="190" height="95" as="geometry" />
        </mxCell>
        <mxCell id="_K6qsM1CxrZbafqOVtYa-8" value="" style="shape=tableRow;horizontal=0;startSize=0;swimlaneHead=0;swimlaneBody=0;strokeColor=inherit;top=0;left=0;bottom=0;right=0;collapsible=0;dropTarget=0;fillColor=none;points=[[0,0.5],[1,0.5]];portConstraint=eastwest;fontSize=16;" vertex="1" parent="_K6qsM1CxrZbafqOVtYa-7">
          <mxGeometry width="190" height="34" as="geometry" />
        </mxCell>
        <mxCell id="_K6qsM1CxrZbafqOVtYa-9" value="DepartmentID: int" style="shape=partialRectangle;html=1;whiteSpace=wrap;connectable=0;strokeColor=inherit;overflow=hidden;fillColor=none;top=0;left=0;bottom=0;right=0;pointerEvents=1;fontSize=12;align=left;spacingLeft=5;" vertex="1" parent="_K6qsM1CxrZbafqOVtYa-8">
          <mxGeometry width="190" height="34" as="geometry">
            <mxRectangle width="190" height="34" as="alternateBounds" />
          </mxGeometry>
        </mxCell>
        <mxCell id="_K6qsM1CxrZbafqOVtYa-10" value="" style="shape=tableRow;horizontal=0;startSize=0;swimlaneHead=0;swimlaneBody=0;strokeColor=inherit;top=0;left=0;bottom=0;right=0;collapsible=0;dropTarget=0;fillColor=none;points=[[0,0.5],[1,0.5]];portConstraint=eastwest;fontSize=16;" vertex="1" parent="_K6qsM1CxrZbafqOVtYa-7">
          <mxGeometry y="34" width="190" height="31" as="geometry" />
        </mxCell>
        <mxCell id="_K6qsM1CxrZbafqOVtYa-11" value="JobID: int" style="shape=partialRectangle;html=1;whiteSpace=wrap;connectable=0;strokeColor=inherit;overflow=hidden;fillColor=none;top=0;left=0;bottom=0;right=0;pointerEvents=1;fontSize=12;align=left;spacingLeft=5;" vertex="1" parent="_K6qsM1CxrZbafqOVtYa-10">
          <mxGeometry width="190" height="31" as="geometry">
            <mxRectangle width="190" height="31" as="alternateBounds" />
          </mxGeometry>
        </mxCell>
        <mxCell id="_K6qsM1CxrZbafqOVtYa-12" value="" style="shape=tableRow;horizontal=0;startSize=0;swimlaneHead=0;swimlaneBody=0;strokeColor=inherit;top=0;left=0;bottom=0;right=0;collapsible=0;dropTarget=0;fillColor=none;points=[[0,0.5],[1,0.5]];portConstraint=eastwest;fontSize=16;" vertex="1" parent="_K6qsM1CxrZbafqOVtYa-7">
          <mxGeometry y="65" width="190" height="30" as="geometry" />
        </mxCell>
        <mxCell id="_K6qsM1CxrZbafqOVtYa-13" value="Status: varchar(20)" style="shape=partialRectangle;html=1;whiteSpace=wrap;connectable=0;strokeColor=inherit;overflow=hidden;fillColor=none;top=0;left=0;bottom=0;right=0;pointerEvents=1;fontSize=12;align=left;spacingLeft=5;" vertex="1" parent="_K6qsM1CxrZbafqOVtYa-12">
          <mxGeometry width="190" height="30" as="geometry">
            <mxRectangle width="190" height="30" as="alternateBounds" />
          </mxGeometry>
        </mxCell>
        <mxCell id="_K6qsM1CxrZbafqOVtYa-14" value="PK" style="text;html=1;align=center;verticalAlign=middle;resizable=0;points=[];autosize=1;strokeColor=none;fillColor=none;" vertex="1" parent="_K6qsM1CxrZbafqOVtYa-1">
          <mxGeometry y="39" width="40" height="30" as="geometry" />
        </mxCell>
        <mxCell id="_K6qsM1CxrZbafqOVtYa-15" value="FK" style="text;html=1;align=center;verticalAlign=middle;resizable=0;points=[];autosize=1;strokeColor=none;fillColor=none;" vertex="1" parent="_K6qsM1CxrZbafqOVtYa-1">
          <mxGeometry y="90" width="40" height="30" as="geometry" />
        </mxCell>
        <mxCell id="_K6qsM1CxrZbafqOVtYa-16" value="FK" style="text;html=1;align=center;verticalAlign=middle;resizable=0;points=[];autosize=1;strokeColor=none;fillColor=none;" vertex="1" parent="_K6qsM1CxrZbafqOVtYa-1">
          <mxGeometry y="120" width="40" height="30" as="geometry" />
        </mxCell>
        <mxCell id="9vP2TSVtH9KqwA-9QrEX-1" value="" style="shape=table;startSize=0;container=1;collapsible=0;childLayout=tableLayout;fontSize=11;fillColor=none;strokeColor=none;" vertex="1" parent="_K6qsM1CxrZbafqOVtYa-1">
          <mxGeometry x="40" y="180" width="100" height="18" as="geometry" />
        </mxCell>
        <mxCell id="9vP2TSVtH9KqwA-9QrEX-2" value="" style="shape=tableRow;horizontal=0;startSize=0;swimlaneHead=0;swimlaneBody=0;strokeColor=inherit;top=0;left=0;bottom=0;right=0;collapsible=0;dropTarget=0;fillColor=none;points=[[0,0.5],[1,0.5]];portConstraint=eastwest;fontSize=16;" vertex="1" parent="9vP2TSVtH9KqwA-9QrEX-1">
          <mxGeometry width="100" height="18" as="geometry" />
        </mxCell>
        <mxCell id="9vP2TSVtH9KqwA-9QrEX-3" value="CandidateID" style="shape=partialRectangle;html=1;whiteSpace=wrap;connectable=0;strokeColor=inherit;overflow=hidden;fillColor=none;top=0;left=0;bottom=0;right=0;pointerEvents=1;fontSize=12;align=left;spacingLeft=5;" vertex="1" parent="9vP2TSVtH9KqwA-9QrEX-2">
          <mxGeometry width="100" height="18" as="geometry">
            <mxRectangle width="100" height="18" as="alternateBounds" />
          </mxGeometry>
        </mxCell>
        <mxCell id="9vP2TSVtH9KqwA-9QrEX-4" value="FK" style="text;html=1;align=center;verticalAlign=middle;resizable=0;points=[];autosize=1;strokeColor=none;fillColor=none;" vertex="1" parent="_K6qsM1CxrZbafqOVtYa-1">
          <mxGeometry x="-5" y="174" width="40" height="30" as="geometry" />
        </mxCell>
        <mxCell id="xFVRjyKiL2RSMHd0SxIi-1" value="Candidates" style="swimlane;whiteSpace=wrap;html=1;fillColor=#2975FF;strokeColor=#5C81B8;" vertex="1" parent="1">
          <mxGeometry x="40" y="51" width="280" height="262" as="geometry" />
        </mxCell>
        <mxCell id="xFVRjyKiL2RSMHd0SxIi-2" value="" style="line;strokeWidth=2;html=1;" vertex="1" parent="xFVRjyKiL2RSMHd0SxIi-1">
          <mxGeometry y="75" width="280" height="10" as="geometry" />
        </mxCell>
        <mxCell id="xFVRjyKiL2RSMHd0SxIi-3" value="" style="shape=table;startSize=0;container=1;collapsible=0;childLayout=tableLayout;fontSize=11;fillColor=none;strokeColor=none;" vertex="1" parent="xFVRjyKiL2RSMHd0SxIi-1">
          <mxGeometry x="40" y="45" width="100" height="18" as="geometry" />
        </mxCell>
        <mxCell id="xFVRjyKiL2RSMHd0SxIi-4" value="" style="shape=tableRow;horizontal=0;startSize=0;swimlaneHead=0;swimlaneBody=0;strokeColor=inherit;top=0;left=0;bottom=0;right=0;collapsible=0;dropTarget=0;fillColor=none;points=[[0,0.5],[1,0.5]];portConstraint=eastwest;fontSize=16;" vertex="1" parent="xFVRjyKiL2RSMHd0SxIi-3">
          <mxGeometry width="100" height="18" as="geometry" />
        </mxCell>
        <mxCell id="xFVRjyKiL2RSMHd0SxIi-5" value="CandidateID" style="shape=partialRectangle;html=1;whiteSpace=wrap;connectable=0;strokeColor=inherit;overflow=hidden;fillColor=none;top=0;left=0;bottom=0;right=0;pointerEvents=1;fontSize=12;align=left;spacingLeft=5;" vertex="1" parent="xFVRjyKiL2RSMHd0SxIi-4">
          <mxGeometry width="100" height="18" as="geometry">
            <mxRectangle width="100" height="18" as="alternateBounds" />
          </mxGeometry>
        </mxCell>
        <mxCell id="xFVRjyKiL2RSMHd0SxIi-6" value="" style="line;strokeWidth=2;html=1;rotation=90;" vertex="1" parent="xFVRjyKiL2RSMHd0SxIi-1">
          <mxGeometry x="-73.91" y="137.92" width="227.81" height="10" as="geometry" />
        </mxCell>
        <mxCell id="xFVRjyKiL2RSMHd0SxIi-7" value="" style="shape=table;startSize=0;container=1;collapsible=0;childLayout=tableLayout;fontSize=11;fillColor=none;strokeColor=none;" vertex="1" parent="xFVRjyKiL2RSMHd0SxIi-1">
          <mxGeometry x="40" y="85" width="200" height="85" as="geometry" />
        </mxCell>
        <mxCell id="xFVRjyKiL2RSMHd0SxIi-8" value="" style="shape=tableRow;horizontal=0;startSize=0;swimlaneHead=0;swimlaneBody=0;strokeColor=inherit;top=0;left=0;bottom=0;right=0;collapsible=0;dropTarget=0;fillColor=none;points=[[0,0.5],[1,0.5]];portConstraint=eastwest;fontSize=16;" vertex="1" parent="xFVRjyKiL2RSMHd0SxIi-7">
          <mxGeometry width="200" height="29" as="geometry" />
        </mxCell>
        <mxCell id="xFVRjyKiL2RSMHd0SxIi-9" value="Email:nvarchar(320)" style="shape=partialRectangle;html=1;whiteSpace=wrap;connectable=0;strokeColor=inherit;overflow=hidden;fillColor=none;top=0;left=0;bottom=0;right=0;pointerEvents=1;fontSize=12;align=left;spacingLeft=5;" vertex="1" parent="xFVRjyKiL2RSMHd0SxIi-8">
          <mxGeometry width="200" height="29" as="geometry">
            <mxRectangle width="200" height="29" as="alternateBounds" />
          </mxGeometry>
        </mxCell>
        <mxCell id="xFVRjyKiL2RSMHd0SxIi-10" value="" style="shape=tableRow;horizontal=0;startSize=0;swimlaneHead=0;swimlaneBody=0;strokeColor=inherit;top=0;left=0;bottom=0;right=0;collapsible=0;dropTarget=0;fillColor=none;points=[[0,0.5],[1,0.5]];portConstraint=eastwest;fontSize=16;" vertex="1" parent="xFVRjyKiL2RSMHd0SxIi-7">
          <mxGeometry y="29" width="200" height="27" as="geometry" />
        </mxCell>
        <mxCell id="xFVRjyKiL2RSMHd0SxIi-11" value="PhoneNumber: nvarchar(20)" style="shape=partialRectangle;html=1;whiteSpace=wrap;connectable=0;strokeColor=inherit;overflow=hidden;fillColor=none;top=0;left=0;bottom=0;right=0;pointerEvents=1;fontSize=12;align=left;spacingLeft=5;" vertex="1" parent="xFVRjyKiL2RSMHd0SxIi-10">
          <mxGeometry width="200" height="27" as="geometry">
            <mxRectangle width="200" height="27" as="alternateBounds" />
          </mxGeometry>
        </mxCell>
        <mxCell id="xFVRjyKiL2RSMHd0SxIi-12" value="" style="shape=tableRow;horizontal=0;startSize=0;swimlaneHead=0;swimlaneBody=0;strokeColor=inherit;top=0;left=0;bottom=0;right=0;collapsible=0;dropTarget=0;fillColor=none;points=[[0,0.5],[1,0.5]];portConstraint=eastwest;fontSize=16;" vertex="1" parent="xFVRjyKiL2RSMHd0SxIi-7">
          <mxGeometry y="56" width="200" height="29" as="geometry" />
        </mxCell>
        <mxCell id="xFVRjyKiL2RSMHd0SxIi-13" value="LocationID:int" style="shape=partialRectangle;html=1;whiteSpace=wrap;connectable=0;strokeColor=inherit;overflow=hidden;fillColor=none;top=0;left=0;bottom=0;right=0;pointerEvents=1;fontSize=12;align=left;spacingLeft=5;" vertex="1" parent="xFVRjyKiL2RSMHd0SxIi-12">
          <mxGeometry width="200" height="29" as="geometry">
            <mxRectangle width="200" height="29" as="alternateBounds" />
          </mxGeometry>
        </mxCell>
        <mxCell id="xFVRjyKiL2RSMHd0SxIi-14" value="PK" style="text;html=1;align=center;verticalAlign=middle;resizable=0;points=[];autosize=1;strokeColor=none;fillColor=none;" vertex="1" parent="xFVRjyKiL2RSMHd0SxIi-1">
          <mxGeometry y="39" width="40" height="30" as="geometry" />
        </mxCell>
        <mxCell id="xFVRjyKiL2RSMHd0SxIi-15" value="FK" style="text;html=1;align=center;verticalAlign=middle;resizable=0;points=[];autosize=1;strokeColor=none;fillColor=none;" vertex="1" parent="xFVRjyKiL2RSMHd0SxIi-1">
          <mxGeometry y="140" width="40" height="30" as="geometry" />
        </mxCell>
        <mxCell id="xFVRjyKiL2RSMHd0SxIi-16" value="Candidate_Lname: varchar(50)" style="shape=partialRectangle;html=1;whiteSpace=wrap;connectable=0;strokeColor=#A680B8;overflow=hidden;fillColor=none;top=0;left=0;bottom=0;right=0;pointerEvents=1;fontSize=12;align=left;spacingLeft=5;" vertex="1" parent="xFVRjyKiL2RSMHd0SxIi-1">
          <mxGeometry x="40" y="200" width="210" height="34" as="geometry">
            <mxRectangle width="130" height="34" as="alternateBounds" />
          </mxGeometry>
        </mxCell>
        <mxCell id="xFVRjyKiL2RSMHd0SxIi-17" value="Candidate_Fname: varchar(50)" style="shape=partialRectangle;html=1;whiteSpace=wrap;connectable=0;strokeColor=inherit;overflow=hidden;fillColor=none;top=0;left=0;bottom=0;right=0;pointerEvents=1;fontSize=12;align=left;spacingLeft=5;" vertex="1" parent="xFVRjyKiL2RSMHd0SxIi-1">
          <mxGeometry x="40" y="170" width="210" height="34" as="geometry">
            <mxRectangle width="130" height="34" as="alternateBounds" />
          </mxGeometry>
        </mxCell>
        <mxCell id="xFVRjyKiL2RSMHd0SxIi-18" value="JobID: int" style="shape=partialRectangle;html=1;whiteSpace=wrap;connectable=0;strokeColor=inherit;overflow=hidden;fillColor=none;top=0;left=0;bottom=0;right=0;pointerEvents=1;fontSize=12;align=left;spacingLeft=5;" vertex="1" parent="xFVRjyKiL2RSMHd0SxIi-1">
          <mxGeometry x="40" y="230" width="210" height="34" as="geometry">
            <mxRectangle width="130" height="34" as="alternateBounds" />
          </mxGeometry>
        </mxCell>
        <mxCell id="xFVRjyKiL2RSMHd0SxIi-19" value="FK" style="text;html=1;align=center;verticalAlign=middle;resizable=0;points=[];autosize=1;strokeColor=none;fillColor=none;" vertex="1" parent="xFVRjyKiL2RSMHd0SxIi-1">
          <mxGeometry y="232" width="40" height="30" as="geometry" />
        </mxCell>
      </root>
    </mxGraphModel>
  </diagram>
  <diagram id="2GcOKC0DvEOONvrX2xMC" name="Onboarding">
    <mxGraphModel dx="661" dy="814" grid="1" gridSize="10" guides="1" tooltips="1" connect="1" arrows="1" fold="1" page="1" pageScale="1" pageWidth="850" pageHeight="1100" math="0" shadow="0">
      <root>
        <mxCell id="0" />
        <mxCell id="1" parent="0" />
        <mxCell id="CJK9RboJPuFtrOzg9fzj-1" value="BackgroundCheck" style="swimlane;whiteSpace=wrap;html=1;" vertex="1" parent="1">
          <mxGeometry x="120" y="400" width="244.11" height="200" as="geometry" />
        </mxCell>
        <mxCell id="CJK9RboJPuFtrOzg9fzj-2" value="" style="line;strokeWidth=2;html=1;" vertex="1" parent="CJK9RboJPuFtrOzg9fzj-1">
          <mxGeometry y="75" width="240" height="10" as="geometry" />
        </mxCell>
        <mxCell id="CJK9RboJPuFtrOzg9fzj-3" value="" style="shape=table;startSize=0;container=1;collapsible=0;childLayout=tableLayout;fontSize=11;fillColor=none;strokeColor=none;" vertex="1" parent="CJK9RboJPuFtrOzg9fzj-1">
          <mxGeometry x="40" y="45" width="150" height="18" as="geometry" />
        </mxCell>
        <mxCell id="CJK9RboJPuFtrOzg9fzj-4" value="" style="shape=tableRow;horizontal=0;startSize=0;swimlaneHead=0;swimlaneBody=0;strokeColor=inherit;top=0;left=0;bottom=0;right=0;collapsible=0;dropTarget=0;fillColor=none;points=[[0,0.5],[1,0.5]];portConstraint=eastwest;fontSize=16;" vertex="1" parent="CJK9RboJPuFtrOzg9fzj-3">
          <mxGeometry width="150" height="18" as="geometry" />
        </mxCell>
        <mxCell id="CJK9RboJPuFtrOzg9fzj-5" value="BackgroundCheckID" style="shape=partialRectangle;html=1;whiteSpace=wrap;connectable=0;strokeColor=inherit;overflow=hidden;fillColor=none;top=0;left=0;bottom=0;right=0;pointerEvents=1;fontSize=12;align=left;spacingLeft=5;" vertex="1" parent="CJK9RboJPuFtrOzg9fzj-4">
          <mxGeometry width="150" height="18" as="geometry">
            <mxRectangle width="150" height="18" as="alternateBounds" />
          </mxGeometry>
        </mxCell>
        <mxCell id="CJK9RboJPuFtrOzg9fzj-6" value="" style="line;strokeWidth=2;html=1;rotation=90;" vertex="1" parent="CJK9RboJPuFtrOzg9fzj-1">
          <mxGeometry x="-47.6" y="106.47" width="175.19" height="10" as="geometry" />
        </mxCell>
        <mxCell id="CJK9RboJPuFtrOzg9fzj-7" value="" style="shape=table;startSize=0;container=1;collapsible=0;childLayout=tableLayout;fontSize=11;fillColor=none;strokeColor=none;" vertex="1" parent="CJK9RboJPuFtrOzg9fzj-1">
          <mxGeometry x="41" y="85" width="199" height="28" as="geometry" />
        </mxCell>
        <mxCell id="CJK9RboJPuFtrOzg9fzj-8" value="" style="shape=tableRow;horizontal=0;startSize=0;swimlaneHead=0;swimlaneBody=0;strokeColor=inherit;top=0;left=0;bottom=0;right=0;collapsible=0;dropTarget=0;fillColor=none;points=[[0,0.5],[1,0.5]];portConstraint=eastwest;fontSize=16;" vertex="1" parent="CJK9RboJPuFtrOzg9fzj-7">
          <mxGeometry width="199" height="28" as="geometry" />
        </mxCell>
        <mxCell id="CJK9RboJPuFtrOzg9fzj-9" value="IdentityVerification: bit" style="shape=partialRectangle;html=1;whiteSpace=wrap;connectable=0;strokeColor=inherit;overflow=hidden;fillColor=none;top=0;left=0;bottom=0;right=0;pointerEvents=1;fontSize=12;align=left;spacingLeft=5;" vertex="1" parent="CJK9RboJPuFtrOzg9fzj-8">
          <mxGeometry width="199" height="28" as="geometry">
            <mxRectangle width="199" height="28" as="alternateBounds" />
          </mxGeometry>
        </mxCell>
        <mxCell id="CJK9RboJPuFtrOzg9fzj-10" value="FK" style="text;html=1;align=center;verticalAlign=middle;resizable=0;points=[];autosize=1;strokeColor=none;fillColor=none;" vertex="1" parent="CJK9RboJPuFtrOzg9fzj-1">
          <mxGeometry y="171" width="40" height="30" as="geometry" />
        </mxCell>
        <mxCell id="CJK9RboJPuFtrOzg9fzj-11" value="PK" style="text;html=1;align=center;verticalAlign=middle;resizable=0;points=[];autosize=1;strokeColor=none;fillColor=none;" vertex="1" parent="CJK9RboJPuFtrOzg9fzj-1">
          <mxGeometry x="1" y="39" width="40" height="30" as="geometry" />
        </mxCell>
        <mxCell id="CJK9RboJPuFtrOzg9fzj-12" value="CriminalBackground:int" style="shape=partialRectangle;html=1;whiteSpace=wrap;connectable=0;strokeColor=inherit;overflow=hidden;fillColor=none;top=0;left=0;bottom=0;right=0;pointerEvents=1;fontSize=12;align=left;spacingLeft=5;" vertex="1" parent="CJK9RboJPuFtrOzg9fzj-1">
          <mxGeometry x="40" y="115" width="199" height="28" as="geometry">
            <mxRectangle width="199" height="28" as="alternateBounds" />
          </mxGeometry>
        </mxCell>
        <mxCell id="CJK9RboJPuFtrOzg9fzj-25" value="Date:int" style="shape=partialRectangle;html=1;whiteSpace=wrap;connectable=0;strokeColor=inherit;overflow=hidden;fillColor=none;top=0;left=0;bottom=0;right=0;pointerEvents=1;fontSize=12;align=left;spacingLeft=5;" vertex="1" parent="CJK9RboJPuFtrOzg9fzj-1">
          <mxGeometry x="40" y="143" width="199" height="28" as="geometry">
            <mxRectangle width="199" height="28" as="alternateBounds" />
          </mxGeometry>
        </mxCell>
        <mxCell id="CJK9RboJPuFtrOzg9fzj-26" value="CandidateID:int" style="shape=partialRectangle;html=1;whiteSpace=wrap;connectable=0;strokeColor=inherit;overflow=hidden;fillColor=none;top=0;left=0;bottom=0;right=0;pointerEvents=1;fontSize=12;align=left;spacingLeft=5;" vertex="1" parent="CJK9RboJPuFtrOzg9fzj-1">
          <mxGeometry x="41" y="171" width="199" height="28" as="geometry">
            <mxRectangle width="199" height="28" as="alternateBounds" />
          </mxGeometry>
        </mxCell>
        <mxCell id="CJK9RboJPuFtrOzg9fzj-13" value="OnBoarding" style="swimlane;whiteSpace=wrap;html=1;" vertex="1" parent="1">
          <mxGeometry x="150" y="650" width="244.11" height="260" as="geometry" />
        </mxCell>
        <mxCell id="CJK9RboJPuFtrOzg9fzj-14" value="" style="line;strokeWidth=2;html=1;" vertex="1" parent="CJK9RboJPuFtrOzg9fzj-13">
          <mxGeometry y="75" width="240" height="10" as="geometry" />
        </mxCell>
        <mxCell id="CJK9RboJPuFtrOzg9fzj-15" value="" style="shape=table;startSize=0;container=1;collapsible=0;childLayout=tableLayout;fontSize=11;fillColor=none;strokeColor=none;" vertex="1" parent="CJK9RboJPuFtrOzg9fzj-13">
          <mxGeometry x="40" y="45" width="150" height="18" as="geometry" />
        </mxCell>
        <mxCell id="CJK9RboJPuFtrOzg9fzj-16" value="" style="shape=tableRow;horizontal=0;startSize=0;swimlaneHead=0;swimlaneBody=0;strokeColor=inherit;top=0;left=0;bottom=0;right=0;collapsible=0;dropTarget=0;fillColor=none;points=[[0,0.5],[1,0.5]];portConstraint=eastwest;fontSize=16;" vertex="1" parent="CJK9RboJPuFtrOzg9fzj-15">
          <mxGeometry width="150" height="18" as="geometry" />
        </mxCell>
        <mxCell id="CJK9RboJPuFtrOzg9fzj-17" value="BackgroundCheckID" style="shape=partialRectangle;html=1;whiteSpace=wrap;connectable=0;strokeColor=inherit;overflow=hidden;fillColor=none;top=0;left=0;bottom=0;right=0;pointerEvents=1;fontSize=12;align=left;spacingLeft=5;" vertex="1" parent="CJK9RboJPuFtrOzg9fzj-16">
          <mxGeometry width="150" height="18" as="geometry">
            <mxRectangle width="150" height="18" as="alternateBounds" />
          </mxGeometry>
        </mxCell>
        <mxCell id="CJK9RboJPuFtrOzg9fzj-18" value="" style="line;strokeWidth=2;html=1;rotation=90;" vertex="1" parent="CJK9RboJPuFtrOzg9fzj-13">
          <mxGeometry x="-78.33" y="137.19" width="236.65" height="10" as="geometry" />
        </mxCell>
        <mxCell id="CJK9RboJPuFtrOzg9fzj-19" value="" style="shape=table;startSize=0;container=1;collapsible=0;childLayout=tableLayout;fontSize=11;fillColor=none;strokeColor=none;" vertex="1" parent="CJK9RboJPuFtrOzg9fzj-13">
          <mxGeometry x="41" y="85" width="199" height="28" as="geometry" />
        </mxCell>
        <mxCell id="CJK9RboJPuFtrOzg9fzj-20" value="" style="shape=tableRow;horizontal=0;startSize=0;swimlaneHead=0;swimlaneBody=0;strokeColor=inherit;top=0;left=0;bottom=0;right=0;collapsible=0;dropTarget=0;fillColor=none;points=[[0,0.5],[1,0.5]];portConstraint=eastwest;fontSize=16;" vertex="1" parent="CJK9RboJPuFtrOzg9fzj-19">
          <mxGeometry width="199" height="28" as="geometry" />
        </mxCell>
        <mxCell id="CJK9RboJPuFtrOzg9fzj-21" value="CandidateID: int" style="shape=partialRectangle;html=1;whiteSpace=wrap;connectable=0;strokeColor=inherit;overflow=hidden;fillColor=none;top=0;left=0;bottom=0;right=0;pointerEvents=1;fontSize=12;align=left;spacingLeft=5;" vertex="1" parent="CJK9RboJPuFtrOzg9fzj-20">
          <mxGeometry width="199" height="28" as="geometry">
            <mxRectangle width="199" height="28" as="alternateBounds" />
          </mxGeometry>
        </mxCell>
        <mxCell id="CJK9RboJPuFtrOzg9fzj-22" value="FK" style="text;html=1;align=center;verticalAlign=middle;resizable=0;points=[];autosize=1;strokeColor=none;fillColor=none;" vertex="1" parent="CJK9RboJPuFtrOzg9fzj-13">
          <mxGeometry x="1" y="113" width="40" height="30" as="geometry" />
        </mxCell>
        <mxCell id="CJK9RboJPuFtrOzg9fzj-23" value="PK" style="text;html=1;align=center;verticalAlign=middle;resizable=0;points=[];autosize=1;strokeColor=none;fillColor=none;" vertex="1" parent="CJK9RboJPuFtrOzg9fzj-13">
          <mxGeometry x="1" y="39" width="40" height="30" as="geometry" />
        </mxCell>
        <mxCell id="CJK9RboJPuFtrOzg9fzj-24" value="JobTitle: varchar(255)" style="shape=partialRectangle;html=1;whiteSpace=wrap;connectable=0;strokeColor=inherit;overflow=hidden;fillColor=none;top=0;left=0;bottom=0;right=0;pointerEvents=1;fontSize=12;align=left;spacingLeft=5;" vertex="1" parent="CJK9RboJPuFtrOzg9fzj-13">
          <mxGeometry x="40" y="115" width="199" height="28" as="geometry">
            <mxRectangle width="199" height="28" as="alternateBounds" />
          </mxGeometry>
        </mxCell>
        <mxCell id="sm3APcRT_O56nwPe5KTa-3" value="TrainingStatus: varchar(20)" style="shape=partialRectangle;html=1;whiteSpace=wrap;connectable=0;strokeColor=inherit;overflow=hidden;fillColor=none;top=0;left=0;bottom=0;right=0;pointerEvents=1;fontSize=12;align=left;spacingLeft=5;" vertex="1" parent="CJK9RboJPuFtrOzg9fzj-13">
          <mxGeometry x="40" y="143" width="199" height="28" as="geometry">
            <mxRectangle width="199" height="28" as="alternateBounds" />
          </mxGeometry>
        </mxCell>
        <mxCell id="sm3APcRT_O56nwPe5KTa-4" value="Buddy_Fname: varchar(255)&amp;nbsp;" style="shape=partialRectangle;html=1;whiteSpace=wrap;connectable=0;strokeColor=inherit;overflow=hidden;fillColor=none;top=0;left=0;bottom=0;right=0;pointerEvents=1;fontSize=12;align=left;spacingLeft=5;" vertex="1" parent="CJK9RboJPuFtrOzg9fzj-13">
          <mxGeometry x="40" y="171" width="199" height="28" as="geometry">
            <mxRectangle width="199" height="28" as="alternateBounds" />
          </mxGeometry>
        </mxCell>
        <mxCell id="sm3APcRT_O56nwPe5KTa-5" value="Buddy_Lname: varchar(255)" style="shape=partialRectangle;html=1;whiteSpace=wrap;connectable=0;strokeColor=inherit;overflow=hidden;fillColor=none;top=0;left=0;bottom=0;right=0;pointerEvents=1;fontSize=12;align=left;spacingLeft=5;" vertex="1" parent="CJK9RboJPuFtrOzg9fzj-13">
          <mxGeometry x="40" y="199" width="199" height="28" as="geometry">
            <mxRectangle width="199" height="28" as="alternateBounds" />
          </mxGeometry>
        </mxCell>
        <mxCell id="sm3APcRT_O56nwPe5KTa-6" value="StartDate: date" style="shape=partialRectangle;html=1;whiteSpace=wrap;connectable=0;strokeColor=inherit;overflow=hidden;fillColor=none;top=0;left=0;bottom=0;right=0;pointerEvents=1;fontSize=12;align=left;spacingLeft=5;" vertex="1" parent="CJK9RboJPuFtrOzg9fzj-13">
          <mxGeometry x="41" y="227" width="199" height="28" as="geometry">
            <mxRectangle width="199" height="28" as="alternateBounds" />
          </mxGeometry>
        </mxCell>
        <mxCell id="CJK9RboJPuFtrOzg9fzj-27" value="Reimbursments" style="swimlane;whiteSpace=wrap;html=1;" vertex="1" parent="1">
          <mxGeometry x="440" y="450" width="244.11" height="180" as="geometry" />
        </mxCell>
        <mxCell id="CJK9RboJPuFtrOzg9fzj-28" value="" style="line;strokeWidth=2;html=1;" vertex="1" parent="CJK9RboJPuFtrOzg9fzj-27">
          <mxGeometry y="75" width="240" height="10" as="geometry" />
        </mxCell>
        <mxCell id="CJK9RboJPuFtrOzg9fzj-29" value="" style="shape=table;startSize=0;container=1;collapsible=0;childLayout=tableLayout;fontSize=11;fillColor=none;strokeColor=none;" vertex="1" parent="CJK9RboJPuFtrOzg9fzj-27">
          <mxGeometry x="40" y="45" width="150" height="18" as="geometry" />
        </mxCell>
        <mxCell id="CJK9RboJPuFtrOzg9fzj-30" value="" style="shape=tableRow;horizontal=0;startSize=0;swimlaneHead=0;swimlaneBody=0;strokeColor=inherit;top=0;left=0;bottom=0;right=0;collapsible=0;dropTarget=0;fillColor=none;points=[[0,0.5],[1,0.5]];portConstraint=eastwest;fontSize=16;" vertex="1" parent="CJK9RboJPuFtrOzg9fzj-29">
          <mxGeometry width="150" height="18" as="geometry" />
        </mxCell>
        <mxCell id="CJK9RboJPuFtrOzg9fzj-31" value="ApplicationID" style="shape=partialRectangle;html=1;whiteSpace=wrap;connectable=0;strokeColor=inherit;overflow=hidden;fillColor=none;top=0;left=0;bottom=0;right=0;pointerEvents=1;fontSize=12;align=left;spacingLeft=5;" vertex="1" parent="CJK9RboJPuFtrOzg9fzj-30">
          <mxGeometry width="150" height="18" as="geometry">
            <mxRectangle width="150" height="18" as="alternateBounds" />
          </mxGeometry>
        </mxCell>
        <mxCell id="CJK9RboJPuFtrOzg9fzj-32" value="" style="line;strokeWidth=2;html=1;rotation=90;" vertex="1" parent="CJK9RboJPuFtrOzg9fzj-27">
          <mxGeometry x="-37.7" y="96.57" width="155.41" height="10" as="geometry" />
        </mxCell>
        <mxCell id="CJK9RboJPuFtrOzg9fzj-33" value="" style="shape=table;startSize=0;container=1;collapsible=0;childLayout=tableLayout;fontSize=11;fillColor=none;strokeColor=none;" vertex="1" parent="CJK9RboJPuFtrOzg9fzj-27">
          <mxGeometry x="41" y="85" width="199" height="28" as="geometry" />
        </mxCell>
        <mxCell id="CJK9RboJPuFtrOzg9fzj-34" value="" style="shape=tableRow;horizontal=0;startSize=0;swimlaneHead=0;swimlaneBody=0;strokeColor=inherit;top=0;left=0;bottom=0;right=0;collapsible=0;dropTarget=0;fillColor=none;points=[[0,0.5],[1,0.5]];portConstraint=eastwest;fontSize=16;" vertex="1" parent="CJK9RboJPuFtrOzg9fzj-33">
          <mxGeometry width="199" height="28" as="geometry" />
        </mxCell>
        <mxCell id="CJK9RboJPuFtrOzg9fzj-35" value="RequestDate: date" style="shape=partialRectangle;html=1;whiteSpace=wrap;connectable=0;strokeColor=inherit;overflow=hidden;fillColor=none;top=0;left=0;bottom=0;right=0;pointerEvents=1;fontSize=12;align=left;spacingLeft=5;" vertex="1" parent="CJK9RboJPuFtrOzg9fzj-34">
          <mxGeometry width="199" height="28" as="geometry">
            <mxRectangle width="199" height="28" as="alternateBounds" />
          </mxGeometry>
        </mxCell>
        <mxCell id="CJK9RboJPuFtrOzg9fzj-36" value="FK" style="text;html=1;align=center;verticalAlign=middle;resizable=0;points=[];autosize=1;strokeColor=none;fillColor=none;" vertex="1" parent="CJK9RboJPuFtrOzg9fzj-27">
          <mxGeometry x="1" y="113" width="40" height="30" as="geometry" />
        </mxCell>
        <mxCell id="CJK9RboJPuFtrOzg9fzj-37" value="PK" style="text;html=1;align=center;verticalAlign=middle;resizable=0;points=[];autosize=1;strokeColor=none;fillColor=none;" vertex="1" parent="CJK9RboJPuFtrOzg9fzj-27">
          <mxGeometry x="1" y="39" width="40" height="30" as="geometry" />
        </mxCell>
        <mxCell id="CJK9RboJPuFtrOzg9fzj-38" value="ProcessedStatus: int" style="shape=partialRectangle;html=1;whiteSpace=wrap;connectable=0;strokeColor=inherit;overflow=hidden;fillColor=none;top=0;left=0;bottom=0;right=0;pointerEvents=1;fontSize=12;align=left;spacingLeft=5;" vertex="1" parent="CJK9RboJPuFtrOzg9fzj-27">
          <mxGeometry x="41" y="140" width="199" height="28" as="geometry">
            <mxRectangle width="199" height="28" as="alternateBounds" />
          </mxGeometry>
        </mxCell>
        <mxCell id="sm3APcRT_O56nwPe5KTa-2" value="Amount: date" style="shape=partialRectangle;html=1;whiteSpace=wrap;connectable=0;strokeColor=inherit;overflow=hidden;fillColor=none;top=0;left=0;bottom=0;right=0;pointerEvents=1;fontSize=12;align=left;spacingLeft=5;" vertex="1" parent="CJK9RboJPuFtrOzg9fzj-27">
          <mxGeometry x="41" y="112" width="199" height="28" as="geometry">
            <mxRectangle width="199" height="28" as="alternateBounds" />
          </mxGeometry>
        </mxCell>
        <mxCell id="sm3APcRT_O56nwPe5KTa-1" value="" style="shape=tableRow;horizontal=0;startSize=0;swimlaneHead=0;swimlaneBody=0;strokeColor=inherit;top=0;left=0;bottom=0;right=0;collapsible=0;dropTarget=0;fillColor=none;points=[[0,0.5],[1,0.5]];portConstraint=eastwest;fontSize=16;" vertex="1" parent="1">
          <mxGeometry x="491" y="545" width="199" height="28" as="geometry" />
        </mxCell>
      </root>
    </mxGraphModel>
  </diagram>
</mxfile>
